<?xml version="1.0" encoding="UTF-8"?>
<svg id="_レイヤー_2" data-name="レイヤー 2" xmlns="http://www.w3.org/2000/svg" viewBox="0 0 346.7 485.17">
  <defs>
    <style>
      .cls-1 {
        fill: none;
        stroke: #e5e3e3;
        stroke-miterlimit: 10;
        stroke-width: 11.32px;
      }
    </style>
  </defs>
  <g id="_レイヤー_2-2" data-name="レイヤー 2">
    <path class="cls-1" d="M206.68,478.7c-41.74-.46-91.49,1.09-133.24.24-16.72-.33-50.58-.1-67.33.4,0,0-.1-34.41-.1-34.41.33-16.87.17-50.55-.35-67.39.11-42.25,1.19-92.56.62-134.8-.22-42.23,1.14-92.58-.15-134.8-.05-30.25.35-71.73-.2-101.99,29.98-.22,70.86-.66,100.81.36,29.68-.22,70.24.17,99.92.37,29.66-.65,70.27.21,99.94.28,0,0,34.01-.85,34.01-.85l-.4,34.41-.37,33.7,1.19,33.67-1.24,33.74,1.18,33.66-.33,33.73c-.2,16.8-.04,50.59.33,67.38,0,0-1.16,33.73-1.16,33.73l.81,33.67c-.21,16.74-.17,50.66-.18,67.42,0,0,.46,33.7.46,33.7l-.89,33.83c-16.69.18-50.06.13-66.73-.07,0,0-33.3.69-33.3.69l-33.32-.66h0Z"/>
  </g>
</svg>