<?xml version="1.0" encoding="UTF-8"?>
<svg id="_レイヤー_2" data-name="レイヤー 2" xmlns="http://www.w3.org/2000/svg" viewBox="0 0 239.09 641.87">
  <defs>
    <style>
      .cls-1 {
        fill: #cdcbcb;
      }

      .cls-1, .cls-2 {
        stroke-width: 0px;
      }

      .cls-2 {
        fill: #cecccc;
      }
    </style>
  </defs>
  <g id="_レイヤー_2-2" data-name="レイヤー 2">
    <g>
      <g>
        <path class="cls-2" d="M6.09,632.56c-.9.08-.6.93,1.64,1.29.61-.28,1.21-.56,1.8-.86-1.15-.11-2.3-.25-3.45-.44Z"/>
        <path class="cls-2" d="M21.08,636.36c.68-.17,1.31-.38,1.99-.62,2.06-.57,3.51-1.34,2.18-2.19-.47.2-.88.34-1.24.46-.37.12-.6.2-.99.28-.11.03-.22.05-.33.08l-.22.07c-.15.04-.29.08-.44.12-.29.08-.58.16-.88.27-.61.2-1.3.47-2.24.92-2.32.14-4-.54-3.58-.95-.84.27-3.47-.58-4.79-.06,2.79,1.4,6.75,1.77,10.67.81.86.22.06.57-.14.8Z"/>
        <path class="cls-2" d="M235.39,621.84l-.14,1.47c.08-.4.12-.91.14-1.47Z"/>
        <path class="cls-2" d="M236.04,480.05c.03,1.08.15,1.53.26,1.59-.08-1-.15-1.83-.26-1.59Z"/>
        <path class="cls-2" d="M237.36,455.84c-.03.52-.05.96-.08,1.43.11-.54.17-1.09.08-1.43Z"/>
        <path class="cls-2" d="M235.39,621.84l.38-3.79c-.39-.27-.29,1.94-.38,3.79Z"/>
        <path class="cls-2" d="M52.67,633.58c-.79.05-1.45.16-2.06.3.65-.05,1.28-.08,1.93-.11.04-.06.07-.12.13-.19Z"/>
        <path class="cls-2" d="M187.41,640.36h-1.15c-.34.13-.66.29-.96.47l2.11-.47Z"/>
        <path class="cls-2" d="M139.44,640.17c1.08.05,1.47-.96,1.89-1.4-.62.41-1.42.61-2.37.68-.02.19.12.43.48.72Z"/>
        <path class="cls-2" d="M63.39,637.78l-1.35.13c.35-.03.94-.09,1.35-.13Z"/>
        <path class="cls-2" d="M221.74,640.85c.08.15.25.29.43.37,0-.13-.17-.25-.43-.37Z"/>
        <path class="cls-2" d="M10.26,579.28c-.07-.04-.12.02-.18,0,.1.28.17.37.18,0Z"/>
        <path class="cls-2" d="M5.22,634.89l-.05-.77c-.19-.08-.38-.17-.57-.17l.62.94Z"/>
        <path class="cls-2" d="M238.67,411.53c0,.09-.01.12-.02.2.12,1.17.1.51.02-.2Z"/>
        <path class="cls-2" d="M121.42,40.29c3.45,3.19-7-2.95-1.62,1.56-.34-.68,6.2,1.97,1.62-1.56Z"/>
        <path class="cls-2" d="M53.91,633.72c.65,0,1.31-.01,1.97,0-.89-.04-1.5-.04-1.97,0Z"/>
        <path class="cls-2" d="M119.8,41.85h0s.56.47.56.47c-.23-.19-.36-.3-.55-.47Z"/>
        <path class="cls-2" d="M238.23,309.55c-.18.2-.33.61-.47,1.03.11-.03.24-.26.47-1.03Z"/>
        <path class="cls-2" d="M236.61,385.49l.13-1.89c-.09.75-.12,1.35-.13,1.89Z"/>
        <path class="cls-2" d="M236.92,269.87c.04-1.03.17-1.39-.01-2.78-.05.13-.08.26-.11.43.16.5.24,1.18.12,2.35Z"/>
        <path class="cls-2" d="M234.12,228.61c-.05.23-.07.52-.11.78.06.41.14.88.21,1.3l-.1-2.08Z"/>
        <path class="cls-2" d="M9.77,454.37c-.29.9-.6,1.46-.91,1.9.72-.63.98,5.4.91-1.9Z"/>
        <path class="cls-2" d="M52.69,634.15c.24-.26.59-.38,1.23-.43-.47.02-.93.03-1.37.04-.12.15-.15.29.14.38Z"/>
        <path class="cls-2" d="M228.84,268.47l-.11-6.47c-.02,1.82.03,4.17.11,6.47Z"/>
        <path class="cls-2" d="M9.63,159.51l.12,1.5c.02-.58,0-1.11-.12-1.5Z"/>
        <path class="cls-2" d="M227.49,242.82c.27-1.17.38-2.4.4-3.67-.1-.26-.2-.56-.33-.72l-.07,4.39Z"/>
        <path class="cls-2" d="M8.85,456.29s.01-.01.01-.01c0,0,0,0-.01.01Z"/>
        <path class="cls-2" d="M11.26,499.3c.03-6.22-1.31-2.92-2.08-4.24-.38-7.43.99-3.44,1.67-5.96-.35-4.64-1.58-8.19-1.53-11.65.22-.26.3-.93.58-.14-1.06-4.9-.05-14.55-1.39-20.27.12-.42.23-.64.33-.75-.67.93-1.35,1.07-1.83.88-.02-2.79-.84-5.18.03-6.23-.03,1.71.33,1.85.6,2.65l-.38-2.92c1.26-2.63.44,3.99,1.37,3.99-.41-5.7-1.45-12.34-1.09-16.71,1.23-.91.41,10.21,1.51,4.38l-.47,6.76c1.94-5.16-.14,4.11,1.94-.64.36-8.89-.63-9.95-.27-18.82-.68-2-1.01.66-1.69-1.34-1.23-12.61,3.09-9.92,1.45-19.19-.82-2.4-2.37-3.33-1.55-9.93l1.39,2.25c.14-8.61-2-4.91-1.06-13.93.55,1.6.46,6.77.63,5.46,1.1-5.84-.79-4.13-.79-8.62l1.23-.93c-.19-9.17-1.08-19.26-1.31-29.42.37.56.75,2.3,1.13-.07-.61-12.8.15-27.33.88-39.68l-1.06-4.72c.01-1.1.48-2.04.69-.85.4-4.81-.67-.25-1.09-2.56-.07-2.74.61-3.62.93-1.88-.9-8.49-1.94-24.2-.8-33.14l.32,1.74c.43-6.97-2.18-7.86-1.19-14.33l.19,1.24c.46-15.12-.51-31.84,1.09-43.38-1.53-2.19.68-14.97-1.45-15.94,1.06-8.64,1.44-6.16,2.15-18.33.1-3.25-1.33-4.84-1.56-8.86l1.12-.1-1.17-5.45,1.33-2.9-.29-3.77c-.07,1.5-.5,3.19-.82,2.96-.5-5.88.78-14.34,1.35-14.49l-.94-13.92c.45.31.6,2.64.89,4.48-1.14-7.43,1.18-1.35.13-8.16-.25.91-.66-.49-.89-.65.67-3.39.68-11.12.4-16.84l.77,1.1c.2-10.32-.37-21.77-.36-33.35-.36,4.16-1.69,3.2-1.82-.2l1.18-1.36c-.73-2.19-.44,3.55-1.34-.95.14-4.33,1.34-2.91,1.72-.42l-.41-5.26c.35-.31.54.93.99,1.25-.73-2.16,1.18-9.08-.09-12.2l.35-.3c0-11.58-.4-16.84-.45-26.27-1.02-.18-.79-3.87-1.61-6.69.16-3.47.44-7.12.67-10.96.11-1.92.22-3.88.28-5.88.01-.5.03-1.01.04-1.51l.02-.76v-.24c.03-.26.03-.52.02-.8-.05-.22-.16-.47-.15-.6.07-.07.12-.13.15-.19.06-.12.03-.23-.05-.34-.13-.22-.53-.44-.05-.77.18.22.55.37.91.48.18.06.36.11.54.15.04.02.35.04.53.05.21.02.41.03.6.04,1.55.13,2.52.26.44.64,4.82-.21,7.91-.12,11.31-.01,3.41.15,7.14.25,13.22,1.08-1.22-.66-2.69-1.05-1.86-1.23,2.24.24,4.92,1.4,4.5,1.77l-.59-.04c13.94,1.52,29.19,13.34,40.15,16.19l-.61-.18c3.64,1.33,7.27,2.73,10.87,4.21,4.68,2.59-3.17-.85.08,1.47,5.9,2.2,10.21,4.66,14.19,7.12,3.98,2.46,7.64,4.9,12.35,7.21,2.71,3.3,8.86,6.97,15.11,10.89,3.13,1.96,6.27,4,9.03,6.11,2.76,2.1,5.16,4.26,6.85,6.32l-.04-.88c2.47,1.32,2.24,2.45,3.6,3.92.14-.56-1.79-2.43-.3-1.54,2.2,1.89,4.34,3.88,6.4,5.97,2.05,2.1,4.02,4.3,5.91,6.59,3.77,4.6,7.22,9.57,10.54,14.72,3.31,5.15,6.55,10.48,9.79,15.74,3.22,5.27,6.36,10.49,9.32,15.71,2.19,3.8,3.49,4.48,4.84,5.48,1.31,1.02,2.69,2.37,4.57,7.65-.82-.76-1.69-1.49-2.52-2.22,2.41,3.72,4.56,7.65,6.5,11.71,1.96,4.04,3.69,8.22,5.31,12.43,3.23,8.42,5.89,16.97,8.68,25.23-.52-.94-.88-.87-1.33-2.5.07,1.88.92,5.15,1.77,7.96.87,2.81,1.75,5.17,2.12,5.12.47,2.67-.5.75-.51,2.45.25,3.69,2.81,8.88,2.27,10.97-.08.35-.45-.98-.63-1.63.85,2.28,1.61,11.11,2.26,8.68.49,6.6,2.11,12.38,1.98,17.66,1.46,3.3.3,11.23,1.92,12.23-1.64-.4-.72,11.66.18,15.78-.54-1.38-.39,3.64-1.13,2.03.18,4.74.55,9.08,1.38,8.24-1.8,8.75,1.59,17.63-1.02,22.55.29,7.1.45,13.96.64,20.67.2,6.7.4,13.21.59,19.64-1.66-.46-.11-14.19-1.81-13.66.55,12.21,2.01,19.22,1.69,31.28-.2,3.12-.72-1.77-1.01-2.82.76,12.15.04,23.46.92,34.24-.15-.03-.32-1.2-.44-2.3.05,2.13-.24,4.95.5,4.71l-.2-2.07c1.08-3.4,2.25,8.45,2.82,8.83-2.13-3.61-.53,10.67-3.22,4.93.14,1.4.49,3.16.99,2.84-.15,2.08-.44,2.74-1,.63.4,7.62,1.19,4.91,1.18,11.82-.36-.02-.5-1.42-.92-2.13.7,3.5,1.4,7.01,1.1,12.85-.22-.35-.5.33-.49-1.41.11,10.02,1.87,17.09,1.19,28.08-1.56-3.24-.51,3.74-1.86,4.32l.4,5.91.66-2.37c-.02,5.18.96,9.76.52,14.21l-.56-3.85.26,9.71.51-5.49c.7,5.24,1.71-.56,1.33,6.33-.14-1.4-.02,5.18-.81,7.88v-.02c.43,2.56.88,5.2.54,9.03-.43,1-1.49-.8-1.78-.15,1.13,2.53.31,12.13,1.52,15.33-.28-1.07-.99-1.12-1.14-.77l.92,2.12c-.29,2.4-.44,2.75-1,2.36-.17,7.22,1.71-2.29.98,6.27-.07-.67-.21-.35-.35-1.75-.39,8.6.58,16.62.13,24.53-1.36,2.33-.33-6.91-1.48-4.24.25,11.4,1.63,23.6,1.31,34.63l.15-2.06c1.92,1.53-.95,8.21-.04,13.79-.14-1.37-1.07-1.79-.85-1.42-.31,7.55.47,15.45,1.08,26.89l-.49-1.42c-.22,2.23-.28,5.16-.32,8.13-.02,1.49-.03,2.99-.05,4.41-.01.71-.03,1.41-.04,2.08-.01.33-.02.66-.03.98,0,.16-.01.32-.02.47,0,.12-.01.23-.02.35.49.82.41,2.79,1.13,1.96-.2.71-.36,1.33-.5,1.89-1.37-.23-2.46-.37-3.48-.45-.36-.04-1.36-.07-2.15-.08-.83-.01-1.65-.02-2.47,0-3.27.03-6.49.22-9.67.4-6.35.35-12.53.65-18.63-.48,1.57,0,3.75-.4,2.5-.41l-11.21.36c.88.84,1.47.52,3.81,1.19-1.42.48-4.59.84-7.37.82,5.04-.51-.03-1.34-2.21-1.83.36.26-.39.54-.2.8-5.84-1.53-.99,1.67-8.98.61l.43-.44c-2.99.2-5.75.76-8.98.61-1.33-.98,3.19-.43,3.4-1.22-4.53.02-8.95,1.76-13.05.77,1.93-.25,4.69-.24,6.62-.49-4.46-1.17-4.98-.89-8.29-1.09l.33.03-7.67-.57,1.95.32c-5.69,2.48-11.55.37-19.2,1.96,7.44-1.51,1.23-.9,1.81-1.99-1.95-.32-4.91-.68-4.06-.99-3.62.86-6.02-.74-11.12.51-.23-.35-3.86-.06-3.04-.94-4.7.24,1.1.62.71,1.06-7.24,1.15-16.99-1.6-27.41-.02-8.98.61-10.65,1.79-18.98,2.31-2.81-.59,2.31-1.27,2.31-1.27-4.53-.56-7.94-.49-12.22-.12.87-.3-.02-.57-1.32-.97-3.43.07-2.3,1.27-6.82.71.78-.39,1.78-1.01,3.44-1.39-4.04.29-8.04.92-12.22,1.21-1.1-.62,2.53-.91,4.01-1.3-4.7.24-12.18.46-13.64,1.42l3.01.37c-1.71.03-.87-.84.39-1.01,4.03-.73,5.81.38,6.03.74l-2.98.2c3.04,2.09,11.97-.24,17.96-.07l-2.51,1.49,6.16-1.2c1.3.4,2.19,1.25-.77,1.45,4.29.78,3.81-.51,7.5.35.41.13.22.2-.16.26l4.2-.42c-.83.31.69,1.07-1.89.83,7.53.93,12.17-1.03,15,.13l-.63.09c10.46-.43,1.02-1.1,8.88-2.33l5.26,2.77,1.04-1.1c1.08.05,3.21.15,2.81.59,4.02-.72-.68-.49,1.66-1.18,5.19,1.05,14.33-.36,15.48,1.41,1.87-.83-4.96-.69.59-1.23,1.57,1.91,6.41-.27,11.15.63-1.46.97-5.96.41-1.21,1.32,2.88-1.63,9.24.43,13.24.15.2-1.31,8.71-.48,15.43-.86-.43.44,12.63.82,18.88,1.35l-.19.22c1.22-1.32,7.66-1.02,12.36-1.26-.19.8-1.04,1.1-3.58,1.44l4.41.03c1.04-.42,2.42-.63,5.28-.76l-1.12.98c5.87,0,11.83-1.08,19.38-.35.43-.92-5.99-2.63,2.01-3.18.29.5.58,1.36-1.51,1.55.69-.06,2.44-.4,3.82-.17l-3.2.82c3.44.4,1.8-.69,4.55-.59-.06.71,2.03.53,1.63,1.09-.7.06-2.4-.31-3.45-.04,3.1.15,6.85.61,8.08,1.16-.27-.41,0-.96,2.28-1.04,2.94,0,3.44.22,3.63.48.19.27.03.59,2.66.79,1.36-.33,4.49-.17,6-.39-.1-1-.28-1.69-.62-2,0-2.27.5-2.45.79-3.32-.06-.58-.11-1.34-.14-2.19-.03-.68-.06-1.46-.09-2.28-.05-1.42-.1-2.99-.15-4.36-.12-2.74-.32-4.67-.89-2.96l-.07.78c-.01-.15-.03-.32-.05-.5v.02-.02c-1.06-9.96.61-20.69.15-30.57l.36.02c-.41-5.9-.24-13.13-1.01-17.34,0-1.74.65-4.12,1.08-3.37-.27-4.51-.67-5.02-.08-11.53.62,4.53.55-1.56.46,4.65.31-5.86.88-7.19-.1-13.48.92,2.14,1.15-4.41.88-7.2l-.66,4.11c-.13-3.13-.05-5.87.03-8.65l1.2,1.5c1.47-11.99-2.49-21.62-.04-30.75-.84-3.17-.59,6.51-1.58,3.68.16-5.52,1.89-11.26,1.89-12.99.67-7.55-1.76-7.05-1.3-14.96-.43,1.01-1.58,1.97-1.98-3.94.16-5.52,1.8-6.78,2.15-3.3.04,1.32-.1,1.96-.25,1.91.16,1.78.34,4.12.81,1.94l-.43-.72c.44-2.74.39-10.33,1.1-8.55-.41-4.17-.71-1.78-.93,1.31.62-7.08.02-11.06.44-18.35-.24,1.16-.74,2.23-.74,1.07.53-10.69-.81-4.71-1-11.95.65-4.11,1.56,1.47,1.01-5.82.44-4.45,1.14-.94,1.49.83-.83-6.64.54-12.41.7-16.2l.35,3.5c-.21-2.09-.2-3.81-.2-5.55l-.86,2c.15-2.05.15-3.79.51-3.75-.56-2.12-1.43,1.62-2.2-2.58.44-2.74-.47-8.34.67-9.29-.39,8.61,1.15-.95,1.33,6.34-.14-1.41-.13-3.12.02-5.18.13-.31.24.29.3.85,1.02-8.24-1.29-3.79-1.26-12.33.64,1.08,1.22-1.98,1.08-3.37-.01,3.44-1.07,1.65-1.56-1.51.5-5.48-.37-5.95-.32-8.82l-.23,3.28c-.64-1.11-.56-3.85-.77-7.67.5-.33.35,3.47.57,2.11-1.14-4.24,1.13-9.6.33-15.5.42-2.74,1.21-.27,1.48-2.68-.88-6.62.82-7.18.1-14.13-.85,2.01-.64,2.36-1.51-2.53l.68,11.43-1.3-7.33c0,3.45.59,7.28.46,9.35-.73-3.49-.51-3.14-1.22-1.48,1.26-4.73-.82-9.36.04-14.83l2.14.16c.93-8.2-1.12-14.56-.41-25.19l-.43,3.41c-.83-1.44-.01-6.56-.27-10.02.71.34,1.02-1.81,1.5-3.27-.53.17.24-7.81-1.17-8.82l1.03-4.76c.51-8.65-1.9-9.89-1.74-18.19.8,2.5,1.28-1.3,1.88,4.28,0-2.78.08-5.29-.41-5.32.42-1.64-1.12-7.68-.55-10.26-.35-1.16-1.11-1.51-1.19-4.63.13-.35.35,0,.35,0-.35,0-.7-4.84-1.37-2.09.92-4.3.61-10.27.11-16.09-.49-5.83-1.2-11.49-.7-15.31-.99-6.02-2.27-13.18-3.26-18.62.27.31.35-.04.46,1-.32-3.81-1.04-4.88-1.78-6.06-.74-1.18-1.48-2.49-2.03-6.78.18-4.57,1.59,4.36,1.43,1.57,1.03-.83.4-3.39-.54-6.46-.92-3.08-2.21-6.65-2.33-9.65l.51,1.33c-.42-4.55-3.88-10.27-6.17-17.18,0,0,.32.26.35-.08-2.77-4.33-6.61-12.92-9.9-19.1,1.74,1.59,1.77,2.69,2.06,1.09-1.45-2.79-.94,1.43-3.87-4.09-.4-2.06-2.08-6.27-1.48-7.27.92,1.75,1.85,3.5,2.73,5.27-.08-1.66-.99-3.36-1.98-5.03-1.04-1.64-2.18-3.23-2.85-4.65l.69.08c-2.29-3.95-3.8-5.74-5.34-7.6-1.54-1.86-3.08-3.8-5.64-7.93l.18,1.08c-4.03-3.71-1.73-4.18-5.5-8.02l.31-2.12c-2.23-2.72-7.91-9.41-11.69-14.41,2.9,2.32,7.43,8.11,10.47,11.52-1.9-2.88-6.63-9.72-8.25-10.81.91,1.08,2.18,2.34,2.77,3.6-3.32-2.89-6.89-7.22-11.01-12.78,1.47-.32-1.06-4.11-4.47-8.27-3.38-4.18-7.68-8.59-8.81-11.12-4.85-3.96-9.49-8.05-14.56-12.06-5.06-4.01-10.48-7.9-16.57-11.61,3.14,4.51-3.56-2.15-3.99.2-2.89-1.62-3.94-2.31-4.12-2.59-2.61-2.13-5.23-4.26-7.89-6.37-1.72-1.79,2.97,1.21,2.96.63-6.18-3.91-2.14-2.39-6.03-5.36.46,1.19-2.76-.32-6.28-2.61,1.55,1.25,3.09,2.52,4.62,3.79-4.72-2.04-6.44-3.49-8.17-4.96-1.74-1.46-3.5-2.95-8.38-4.76l3.23.86c-2.45-1.04-6.84-3.24-11.34-5.15-4.52-1.92-9.03-3.53-11.76-3.77-.75-.61-1.64-1.65.55-.87-5.71-2.66-12.45-5-19.03-6.8-6.58-1.83-12.94-3-17.82-4.33l1.06-.37c-1.21-.14-2.29-.03-3.43-.02-1.14,0-2.34-.05-3.81-.48.18-.21,1.03-.43-.09-.58-1.31.01-6.46.39-9.64.04.91-.19,1.83-.36,2.75-.52C18.17-.06,15.36-.06,12.78.13c-.65.04-1.26.1-1.9.17-1.02.1-2.06.18-3.02.31-1.96.24-3.76.53-5.48.8l-.64.1s-.06,0-.07.02v.09s.01.18.01.18l.02.36.08,1.42.16,2.75c.07.89.13,1.78.2,2.68l.1,1.31c.02.25.03.37.05.5l.05.42c.25,2.24.45,4.56.55,7.12-1.59-.03-2.11,9.56-2.37,14.35l-.23-.17c-.2,14.19,1.32,24.11,1.95,37.25-1.73,8.16-.72,27.64-1.69,40.75.29-2,1.24.33,1.4,2.66-.32,3.08,1.11,8.51-.36,8.02l.03-1.1c-1.43,2.32-1.05,8.64-1.09,13.58l1.91.81c-2.78,12.92,1.02,33.84-1.47,40.89.48,3.12.47,6.98.95,10.07l-1.03-.17c-.26,8.64-.39,12.95-.15,23.62L0,206.76c-.07,6.02,2.95,7.6,3.01,13.16l-1.53,1.67c.02,10.5-1.32,21.14.07,31.52-.22-.17-.67-.48-.73-2.18-.04,4.94-1.04,19.13,1.06,17.33-1.37.12-.13,10.84.47,16.51l-1.01-.88c1.29,4.79,1.64,4.94,2,11.63-.13,1.59-.81,1.39-.55-.72-.53,5.28.96,4.11.42,10.52l-.64-2.39c-.08,5.43.27,5,1.02,7.99.4,3.42-.25,10.31-1.17,11.11.56.73,1.3,3.71,1.04,6.91-.34.43-.56-.73-.66-1.32-.69,9.08,1.17,13.51.18,19.75-.33.13-.5.54-.6,1.05.02-7.22.08-13.03.15-12.48-.93,0-1.09,5.83-2.38,1.19.7,4.68,2.22,12.68,1.79,18.36-.09.28-.18.54-.32.75l-.1-.59c-.09,1.31,0,2.49.15,3.59-.15,1.81-.27,2.96-.28,4.71-.77.67-.42,6.68-.45,9.59,1.02-.24.85,3.57,1.69,0-.07.46-.12-.55-.16-2.48-.03-.44-.05-.95-.11-1.24.03.06.06.12.09.2-.02-1.91-.04-4.4-.07-7.22.52,2.3.95,4.7.39,7.91.65,1.49,1.33,3.13,1.64,4.06-1.42,3.98-2.19,11.64-3.06,12.71.57,8.88.38,20.91,2.29,26.49.25,2.52-.55,2.9-.85,3.84-.19-1.46-.16-3.19-.44-3.98.49,5.04.19,14.95,1.53,16.15-.6,6.36-1.23-3.57-1.01,5.16l-.41-1.18c-2.13,17.19,3.41,27.95.67,47,.17-1.32.25-1.98.47-2.25-1.21,21.73,1.13,44.78-.78,66.21-.39,6.09.47,6.75,1.12,10.47l-1.09,1.32,1.26,6.36c.92,9.02-2.68,15.62-.94,27.03l.74-1.47c-.14,4.1.43,12.99-.41,12.3.13.42.77,1.34.38,2.95l-.57.12.98,10.07c-.41,7.81-2.27-1.22-2.38,10.17.22,4.24,1.66,12.06,2.05,10.47.03-1.71.36-4.37.93-4.5l.3,3.87c1.69.7,3.41,3.68,4.59-5.83l-1.03-6.63.82-2.13.05,5.58c.77-3.16.09-5.17-.38-7.41.43-.53.74-1.46.9-2.78l-1.61-6.51c.66-.79,1.31,2.92,1.67-1.45-.75-3.05-1.48,2.92-1.97-2.12.77-3.17,1.39-2.25.74-5.96.43-.52.71.27.9,1.74-.52-3.31-.22-8.76-1.12-10.47.95-3.3-.25-11.18,1.35-10.85-.38-1.04-1.25-5.83-1.32-8.88,1.91,5.56.11-11.39,2.16-9.92-1.72-4.11-.76-14.86-1.72-22.14.14.41.41,1.21.33,1.85.14-4.1.66-5.29.98-7.93-1.42-.53-1.74-6.91-2.62-10.35,1.37-5.03,1.66,3.05,2.98,1.47-1.15.25-1.15-8.73-2.1-7.02.85-3.84.41-3.31,1.59-5.29-1.77-.67-.3-3.58-1.39-6.77.87-5.56,1.66-1.43,1.12-7.54.54-2.91,1.17,2.53,1.17,2.53ZM8.2,353.97h.02c.02,1.25.04,2.32.06,3-.02-.62-.04-1.49-.08-3ZM8.18,341.75c-.04,1.49-.05,3.34-.04,5.3-.35.43-.71-.04-.69-1.26.23.67.44-2.21.73-4.03ZM1.13,367.59c-.14-1.93.06-2.58.26-2.85.02.91.05,1.98.12,3.38.04.06.08.17.12.23-.19-.18-.38-.4-.51-.76Z"/>
        <path class="cls-2" d="M2.46,371.06c.02.28.07.43.07.8.09-.4.17-.77.23-1.15-.11-.24-.22-.48-.32-.68,0,.35.01.71.02,1.04Z"/>
        <path class="cls-2" d="M235.22,623.58l.02-.26c-.04.21-.08.41-.14.54.05-.17.08-.17.12-.28Z"/>
        <polygon class="cls-2" points="10.13 173.11 9.87 173.13 10.1 174.2 10.13 173.11"/>
        <path class="cls-2" d="M180.96,635.68c-.13-.09-.38-.18-.88-.27.04.07.42.16.88.27Z"/>
        <path class="cls-2" d="M151.91,635.23l-4.11-.39c1.78.22,3.07.33,4.11.39Z"/>
        <path class="cls-2" d="M129.57,634.55c-.28.18-.37.31-.44.43.02,0,.03,0,.04,0l.4-.44Z"/>
        <path class="cls-2" d="M229.8,387.03c0-.3-.02-.6-.05-.86-.2-2.02-.12-.65.05.86Z"/>
        <path class="cls-2" d="M232.18,492.74c-.18-1.12-.37-2.23-.48-3.4-.08,1.88-.1,3.34.48,3.4Z"/>
        <path class="cls-2" d="M228.85,269.18s0,0,.02.01c0-.25-.02-.47-.02-.72v.71Z"/>
        <path class="cls-2" d="M231.71,484.43c-.2,1.88-.16,3.45-.02,4.91.07-1.54.17-3.36.02-4.91Z"/>
        <path class="cls-2" d="M32.75,633.33l-1.08-.05c.02.07-.05.12-.13.16l1.21-.11Z"/>
        <path class="cls-2" d="M31.55,633.44l-1.2.11c.55,0,1.03,0,1.2-.11Z"/>
        <path class="cls-2" d="M27.83,633.79l2.52-.24c-.87,0-1.94-.05-2.52.24Z"/>
        <path class="cls-2" d="M62.32,634.03l.34-.37c-.18.08-.31.19-.34.37Z"/>
        <path class="cls-2" d="M71.31,633.99c-2.14-.1-5.37-.83-8.36-.62l-.28.29c1.41-.54,6.61.94,8.65.33Z"/>
        <path class="cls-2" d="M108.78,638.85l-7.53-.35c1.31.4,3.04.95-.39,1.01,9.48,1.25-1.95-.89,7.91-.66Z"/>
        <path class="cls-2" d="M132.13,639.6c-4.05.15.04.57-.17.79,2.57-.34,3.19-.42.17-.79Z"/>
        <path class="cls-2" d="M236.03,570.89l.93.41c-.13-3.12-.36-.03-.93-.41Z"/>
        <polygon class="cls-2" points="231.25 538.63 230.67 541.67 231.52 543.11 231.25 538.63"/>
        <polygon class="cls-2" points="237.84 519.58 237.97 520.94 237.64 515.74 237.84 519.58"/>
        <path class="cls-2" d="M235.83,235.86l-1.04,1.06c.39,2.1,1.72,2.43,1.04-1.06Z"/>
        <path class="cls-2" d="M196.18,119.83c-.23-1.44-1.8-4.56-3.44-6.04,1.45,2.36,2.57,4.92,3.44,6.04Z"/>
        <polygon class="cls-2" points=".98 140.66 .6 138.2 .92 142.84 .98 140.66"/>
      </g>
      <g>
        <path class="cls-1" d="M4.72,434.87c-.12.41-.05,1.36.28,1.17l.23-1.6-.51.43Z"/>
        <path class="cls-1" d="M6.93,437.82c.39-.77.83-2.13.58-3.6-.38,1.53-.48.89-.89,2.72-.33.19-.57-.51-.52-1.1-.12.41-.51-.35-.69.65.43,1.23.97,1.28,1.54.27.12.35,0,.77-.02,1.06Z"/>
        <path class="cls-1" d="M39.08,440.31l-.21-.19c.06.1.13.16.21.19Z"/>
        <path class="cls-1" d="M59,441.19c-.15.04-.22.2-.22.34.14-.1.26-.2.22-.34Z"/>
        <path class="cls-1" d="M62.4,442.94c-.07-.05-.13-.07-.2-.11.08.15.15.23.2.11Z"/>
        <path class="cls-1" d="M39.08,440.31l.53.5c.04-.52-.27-.39-.53-.5Z"/>
        <path class="cls-1" d="M11.36,433.97c-.11.08-.2.23-.29.42.09-.07.18-.13.27-.17,0-.09,0-.16.02-.25Z"/>
        <path class="cls-1" d="M30.3,441.6h-.16c-.05.18-.09.4-.13.65l.3-.65Z"/>
        <path class="cls-1" d="M23.56,441.85c.15.06.21-1.3.26-1.89-.09.56-.2.82-.33.93,0,.26.02.57.07.96Z"/>
        <path class="cls-1" d="M12.88,439.46l-.19.19c.05-.06.13-.11.19-.19Z"/>
        <path class="cls-1" d="M35.12,441.9c.01.2.04.38.06.49,0-.17-.02-.33-.06-.49Z"/>
        <path class="cls-1" d="M223.6,431.71c0,.1,0,.16,0,.24.04-.14.05-.23,0-.24Z"/>
        <path class="cls-1" d="M231.41,438.42l-.11.07c-.01.26-.02.51-.02.76l.13-.83Z"/>
        <path class="cls-1" d="M68.62,444.68s-.02-.02-.03-.03c-.16.15-.07.13.03.03Z"/>
        <path class="cls-1" d="M125.76,443.68c-.65-1.21,1.05-1.56.08-2.9.09.53-.89,2.11-.08,2.9Z"/>
        <path class="cls-1" d="M11.54,434.15c.09-.02.18-.03.28-.01-.13-.04-.21-.04-.28.01Z"/>
        <path class="cls-1" d="M125.84,440.78h0s-.1-.14-.1-.14c.04.06.07.09.1.14Z"/>
        <path class="cls-1" d="M82.96,443.87c-.03-.24-.09-.42-.15-.59,0,.14.04.31.15.59Z"/>
        <path class="cls-1" d="M72.28,441.94l.26.18c-.1-.12-.19-.17-.26-.18Z"/>
        <path class="cls-1" d="M88.51,441.95c.14.1.19.29.39.11-.02-.07-.04-.12-.06-.16-.07.19-.17.27-.33.06Z"/>
        <path class="cls-1" d="M94.28,441.95c-.03-.1-.07-.18-.11-.27-.06.03-.12.05-.18.07l.29.2Z"/>
        <path class="cls-1" d="M206.05,432.36c.13.38.21.8.27,1.22-.09-.96.76-1.31-.27-1.22Z"/>
        <path class="cls-1" d="M11.37,434.73c.03-.34.08-.51.17-.58-.07.02-.13.04-.19.07-.02.2-.02.39.02.51Z"/>
        <path class="cls-1" d="M88.74,431.26l.92.2c-.26-.13-.59-.2-.92-.2Z"/>
        <path class="cls-1" d="M164.63,432.56l.21-.16c-.08-.03-.16,0-.21.16Z"/>
        <path class="cls-1" d="M92.38,431.26c.16.48.34.76.52.94.04-.11.08-.19.11-.35l-.62-.59Z"/>
        <path class="cls-1" d="M206.32,433.6s0-.01,0-.01c0,0,0,0,0,.01Z"/>
        <path class="cls-1" d="M212.36,430.38c-.87-.04-.41,1.74-.6,2.77-1.04.5-.48-1.31-.84-2.22-.65.47-1.15,2.11-1.64,2.04-.04-.29-.13-.4-.02-.77-.69,1.42-2.04.07-2.85,1.85-.06-.16-.09-.31-.1-.44.13.89.15,1.8.12,2.44-.39.03-.73,1.13-.87-.04.24.03.26-.44.37-.8l-.41.51c-.37-1.67.56-.58.56-1.82-.8.54-1.73,1.93-2.35,1.46-.13-1.64,1.43-.55.62-2.01l.95.63c-.73-2.58.58.18-.09-2.58-1.25-.47-1.4.83-2.64.36-.28.91.09,1.35-.19,2.26-1.77,1.64-1.39-4.12-2.7-1.94-.34,1.09-.47,3.16-1.39,2.07l.32-1.85c-1.21-.18-.69,2.66-1.96,1.42.23-.73.95-.61.77-.83-.82-1.46-.58,1.05-1.21,1.05l-.13-1.64c-1.29.26-2.71,1.44-4.13,1.74.08-.49.32-1-.01-1.5-1.8.82-3.84-.2-5.57-1.17l-.66,1.42c-.15-.02-.29-.64-.12-.91-.68-.54-.04.9-.36,1.45-.38.1-.51-.81-.26-1.24-1.19,1.2-3.4,2.59-4.66,1.07l.25-.42c-.98-.57-1.1,2.9-2.01,1.58l.17-.25c-2.12-.61-4.47.68-6.09-1.45-.31,2.04-2.1-.91-2.24,1.93-1.21-1.41-.87-1.92-2.57-2.86-.46-.13-.68,1.78-1.24,2.07v-1.49s-.78,1.56-.78,1.56l-.41-1.78-.53.38c.21.09.45.67.42,1.1-.83.67-2.01-1.04-2.04-1.8l-1.96,1.26c.04-.6.37-.8.63-1.18-1.04,1.52-.19-1.57-1.15-.18.13.34-.07.89-.09,1.19-.48-.9-1.56-.91-2.37-.53l.15-1.02c-1.45-.26-3.06.49-4.69.47.58.48.45,2.25-.03,2.42l-.19-1.57c-.31.97.5.59-.13,1.78-.61-.18-.41-1.79-.06-2.3l-.74.54c-.04-.47.13-.72.18-1.31-.3.98-1.28-1.58-1.71.12l-.04-.47c-1.63-.01-2.37.53-3.69.61-.03,1.36-.54,1.06-.94,2.15-.97-.43-2.06-1.5-3.23-1.38-.82.67-.24,1.15-.61,1.95-.06-1.23-1.23-1.12-.62-2-1.41.2-1.8.24-3.58,1.25.19.51.41.73.3,1.15-.32.2-.74-.52-.69-1.11l.09-.13c-2,1.85-4.62-3.6-6.21-1.03l.09-.13-1.65,1.34c-.76-.21.46-.93-.11-1.69-1.78,2.06-2.81-.3-4.28,1.07-1.14-3.64-4.03.26-5.56-2.07l.09.86c-.4.84-.48-.49-.77-.69.04.67.43.77.18,1.24-3.36,1.03-6.93-1.25-10.37-2.03-1.26-.23-.71,4.44-2.3,2.39l.45-1.59c-2.54,1.91-5.19-.07-7.68,1.56.15-.37.15-.85.4-.84-.52-1.16-1.94-.06-1.95.89-.39-.11-.09-.85-.33-1.33-.53-.68-1.32,1.48-1.6.33-.05-.19.15-.38.24-.46-.34.56-1.6-.14-1.27,1.19-.93-.64-1.78.59-2.53-.2-.49,1.49-1.6-.72-1.75,1.39.07-2.18-1.64-1.76-2.23-.73.2-.66-.51-.68-.28-1.6-.67.03-1.29.44-1.17,1.56-1.24-2.61-2.49,2.1-3.19-1.24-2,1.17-3.85,1.96-5.65,2.48.06-2.18,1.99-.22,1.91-2.5-1.71.9-2.69,2.76-4.38,2.24-.44-.3.25-.94.4-1.31-1.7.9-3.3-.2-4.81.99,0-.2.17-.42.32-.59-.3.07-.7-.32-.66.67l.29-.27c.48,1.44-1.19,3-1.24,3.76.51-2.83-1.5-.71-.69-4.29-.2.19-.44.66-.4,1.32-.29-.19-.38-.58-.09-1.33-1.07.54-.69,1.59-1.66,1.57,0-.48.2-.66.3-1.23-.49.93-.98,1.87-1.8,1.46.05-.29-.05-.66.2-.66-1.41.14-2.4,2.49-3.94,1.58.46-2.08-.53-.68-.61-2.48l-.83.54.33.87c-.73-.03-1.37,1.28-2,.69l.54-.74-1.36.34.77.68c-.74.93.08,2.28-.89,1.78.2-.18-.73-.02-1.11-1.08,0,0,0,0,0,0-.36.57-.73,1.18-1.27.73-.14-.58.11-1.99.02-2.37-.36,1.5-1.7.42-2.15,2.02.15-.38.16-1.32.11-1.51l-.3,1.22c-.34-.39-.39-.58-.33-1.33-1.01-.22.32,2.28-.88,1.3.09-.1.05-.28.25-.47-1.21-.51-2.34.78-3.45.17-.33-1.81.97-.44.6-1.97-1.6.33-3.32,2.17-4.87,1.74l.29.2c-.21,2.56-1.15-1.26-1.94-.06.19-.19.25-1.42.2-1.14-1.06-.41-2.17.63-3.78,1.43l.2-.66c-.63-.59-1.65-.34-2.32-.64-.2.66-.59.55-.35,1.5-2.08-3.74-3.97,2.01-5.82-1.11.22,0,.53-.57.35-.58l-1.57.61c.12,1.11.21.67.54,1.54-.2.66-.64,1.17-1.03,1.17.71-.74,0-1.79-.31-2.41.05.34-.05.72-.03,1.07-.82-1.98-.14,2.24-1.26.91l.06-.58c-.42.3-.81,1.07-1.26.91-.19-1.29.45-.6.48-1.66-.64.07-1.26,2.44-1.83,1.16.27-.36.66-.36.93-.72-.63-1.51-.7-1.13-1.17-1.37l.05.03-1.08-.69.27.41c-.8,3.36-1.62.61-2.69,2.82,1.04-2.08.17-1.21.25-2.67-.27-.41-.69-.86-.57-1.27-.51,1.18-.85-.93-1.56.79-.03-.47-.54-.05-.43-1.23-.66.37.16.82.1,1.41-1.02,1.61-2.39-1.95-3.85.26-1.26.91-1.49,2.49-2.66,3.28-.39-.75.32-1.71.32-1.71-.64-.69-1.12-.57-1.72-.03.12-.41,0-.76-.19-1.29-.48.12-.32,1.71-.96,1.02.11-.52.25-1.36.48-1.89-.57.43-1.13,1.31-1.72,1.73-.16-.82.35-1.24.56-1.78-.66.37-1.71.74-1.91,2.04l.42.46c-.24.06-.12-1.11.05-1.35.57-1.02.82.45.85.92l-.42.3c.43,2.76,1.68-.44,2.52-.28l-.35,2.01.86-1.66c.18.52.31,1.64-.11,1.94.6.99.53-.71,1.05.39.06.17.03.27-.02.35l.59-.6c-.12.42.1,1.42-.26,1.13,1.06,1.16,1.71-1.5,2.11.02l-.09.12c1.47-.68.14-1.47,1.24-3.2l.74,3.63.14-1.47c.15.05.45.16.4.75.56-1.01-.1-.64.23-1.59.73,1.34,2.01-.63,2.18,1.72.26-1.12-.7-.86.08-1.64.22,2.52.9-.43,1.57.73-.2,1.3-.84.61-.17,1.78.4-2.2,1.3.48,1.86.06.03-1.75,1.22-.73,2.17-1.31-.06.59,1.78.96,2.65,1.6l-.03.29c.17-1.77,1.08-1.44,1.73-1.8-.03,1.06-.14,1.48-.5,1.95h.62c.15-.58.34-.87.74-1.08l-.16,1.32c.82-.07,1.66-1.56,2.72-.67.06-1.23-.84-3.44.28-4.26.04.67.08,1.81-.21,2.08.1-.09.34-.55.54-.27l-.45,1.12c.48.49.25-.94.64-.83,0,.95.29.68.23,1.44-.1.09-.34-.39-.48-.02.44.17.96.74,1.14,1.46-.04-.54,0-1.28.32-1.41.82-.07.28,1.15.76,1.63.2-.66.73.02.74-1.4.24,0,.29.67.38,1.06.43-.63,1.99-.18,1.51-1.69l-.11-.1s.04-.03.07-.06h0,0c1.4-1.42,2.91.81,4.29.2v.48c.83-.54,1.84-.32,2.43-1.35.25,0,.58.87.47,1.44.63-.36.7-.89,1.62-.11-.64.83.22.74-.65.61.82.41,1.01,1.17,1.89-.13-.3,1.22.62,1.54,1.01,1.17l-.58-.87c.44-.18.82-.07,1.22.03l-.21,1.6c1.68,1.95,3.04-3.32,4.32-.05.45-1.12-.91-.79-.52-2.1.77.22,1.58,2.52,1.82,2.52,1.06.89.99-2.34,2.1-1.74-.14-.57-.28-2.1.55-2.64.78.21.95,2.4.46,2.86-.19.05-.28-.13-.27-.33-.25.21-.58.45-.27,1.07l.1-.57c.38.58,1.45.52,1.2,1.46.59-.55.25-.94-.18-1.24.99.83,1.55.02,2.58.58-.16-.32-.31-.99-.15-.98,1.5.71.66-1.09,1.68-1.34.58.87-.21,2.08.82,1.35.63.59.13,1.52-.12,1.98.93-1.1,1.74.73,2.28.93l-.49.46c.29-.27.53-.27.78-.26l-.28-1.15c.29.2.53.2.53.68.3-.75-.23-1.9.36-2.93.38.58,1.17-.62,1.3.89-1.21-.52.13,1.53-.89,1.77.2-.18.44-.17.73.03.04.17-.04.31-.12.4,1.16,1.36.53-1.72,1.73-1.68-.15.86.28,1.62.47,1.44-.48-.02-.23-1.43.21-2.08.77.67.84-.5,1.24-.42l-.46-.31c.16-.85.54-.74,1.08-1.01.05.67-.49.46-.3.75.6-1.5,1.35,1.56,2.18.54.38.58.04,1.61.38,2,.93-1.11,1.01,1.17,1.99.26-.28-1.15-.33-.87.36-1.99l-1.61.81,1.03-1.67c-.49-.02-1.02.72-1.31.53.49-.94.44-.65.21-1.61.66,1.73,1.32-1.01,2.08.16l-.02,2.85c1.15,1.27,2.05-1.46,3.55-.75l-.48-.49c.2-1.13.93-.16,1.41-.62-.05.95.26,1.3.47,1.89-.03-.71,1.1.06,1.23-1.84l.67,1.25c1.21.51,1.38-2.71,2.54-2.39-.35,1.03.18,1.71-.6,2.45.39,0,.74.18.74-.48.23.6,1.08-1.28,1.43-.38.16-.42.22-1.42.65-1.34.05.19,0,.47,0,.47,0-.47.68-.64.3-1.69,1.2,2.97,3.34-.22,4.38,2.33.85-.32,1.87-.63,2.64-.69-.05.29,0,.47-.15.38,1.06.89.65-2.73,1.86-1.74.62,1.54-.64.83-.26,1.41.17,3.13,1.46-.43,2.27,1.4l-.2.18c.62,1.06,1.52-1.19,2.53-.96,0,0-.05.28,0,.47.69-1.6,2.01-2.13,2.98-2.57-.3,1.23-.44.65-.26,1.89.44-.18-.13-2,.75-2.35.28.67.91,1.26,1,2.59l-.82.07c.42,1.72,1.07-.06,1.5.24l-.06.75c1.26-.24,1.28-2.14,2.64-2l-.14-.57c.74-1.88.62,1.05,1.36-.34l.22,1.9c.49-.46,1.71-1.84,2.59-2.2-.5,1.41-1.52,2.13-2.16,2.97.49.01,1.65-.14,1.9-1.08-.2.18-.44.65-.63.36.6-1.5,1.38-2.23,2.35-2.2-.17,3.69,2.52.93,3.22,3.8,1.71-1.37,3.39.58,5.39.36-.71-2.87.58-.08.46-3.03.46-.19.64-.14.68.05l1.41,1.76c.33.86-.44.65-.4,1.31,1.02.23.43,1.25,1.1,2.03-.14-1.05.35-1.51.93-1.11l-.82-1.36c1.42-1.57,1.23,2.47,2.66.92l-.45.93c.73-.55,2.71.02,3.43-2.35.13.34.3,1.15-.02,1.36,1.76.36,3.91-2.52,5.27-1.06l-.13.72c.33-.21.57-1.35.98-.63-.02.3-.13.72.02.76.17-.25.87-1.26,1.3-.84l-.37.81c1.71.94,2.63-1.98,4.06-2.47,0,2.12,1.34,2.81,2.02,3.16l-.02.3c1.99.26,3.39-1.76,5.23-2.59,1.15,2.3,3.88.97,5.72,2.26-.28-.38.05-1.65.37-1.87.43.43,1.19-1.47,1.13.47l-.15-.04c.33,1.91,1.21,1.4,1.91,1.45l.11-2.55c1.81,3.7,4.75-1.36,5.74,1.96.44-.64.98-.63,1.41-1.27l-.02,1.37c1.21.35,1.82.52,3.32.19l-.31.98c.85.09,1.07-3.94,1.85-4.02l.23,2.04c1.48-.03,2.97,1.76,4.43-.09-.02.3-.07.89-.31.97.69.05,2.69,1.38,2.43-1.42.02,1.82,1.52.18,2.32-.62l-.12,1.34c.67-1.72.69-2.19,1.63-2.66.22.18.2,1.08-.1.73.74.7.58-1.27,1.48-.56l-.34.86c.76.1.7-.36,1.12-1.36.48-.54,1.45.34,1.56,1.56.1-.74.52-1.73.97-1.38.06.46-.1.74-.19.88,1.28.91,1.9-1.56,2.77-.24.02.45.08.67.15.8-1.01-.03-1.83-.11-1.75-.2,0,1.24.82,1.46.17,3.17.66-.93,1.78-2.96,2.58-2.38.04.12.08.24.11.43l-.08.14c.18.12.35,0,.5-.2.25.2.42.35.66.37.09,1.03.94.55,1.35.6-.03-1.36.5-1.14,0-2.26.06.1-.08.16-.35.22-.06.04-.13.06-.17.14,0-.04.02-.08.03-.12-.27.04-.62.07-1.01.09.32-.69.66-1.27,1.11-.52.21-.87.44-1.77.57-2.19.56,1.89,1.64,2.91,1.79,4.08,1.25-.76,2.94-.5,3.72-3.05.35-.33.41.73.54,1.13-.2.26-.45.22-.56.58.71-.65,2.1-.25,2.27-2.03.89.8-.5,1.64.73,1.35l-.17.54c2.41,2.84,3.93-4.54,6.6-.89-.19-.22-.28-.33-.32-.63,3.05,1.61,6.29-1.51,9.3,1.04.86.51.95-.62,1.47-1.49l.19,1.46.89-1.68c1.27-1.23,2.19,3.57,3.8,1.25l-.21-.98c.58.19,1.82-.58,1.73.55.06-.18.19-1.02.41-.51l.02.76,1.41-1.31c1.1.55-.17,3.02,1.43,3.17.59-.29,1.69-2.22,1.47-2.73-.24-.04-.61-.47-.63-1.24l.54-.4c.1-2.25.52-4.54-.82-6.11l-.93,1.37-.3-1.09.78-.07c-.44-1.03-.73-.12-1.04.5-.07-.58-.21-.98-.39-1.2l-.91,2.15c-.11-.88.41-1.74-.2-2.23-.43,1,.41,1.97-.3,2.62-.45-1.02-.32-1.85-.84-.98-.07-.58.04-.95.24-1.2-.47.69-1.23.29-1.47,1.49-.46-1.26-1.57.33-1.52-1.8-.15.51-.82,1.67-1.25,1.76.78-2.54-1.6-.15-1.39-2.88-.58,2.29-2.09,1.02-3.11,2.29.06-.18.17-.55.26-.43-.58-.19-.74-.88-1.11-1.31-.07,1.89-.97,2.32-1.45,3.49-.71-1.82.43-2.22.21-3.97.04,1.53-1.23,1.53-.99,2.8-.54-1.13-.47-.55-.74-2.11-.09,2.36-.5.4-.95,1.85-.78-1.16-.2-2.21-1.06-1.49-.41-.72.36-1.56.36-1.56ZM191.95,434.46v-.03c.18-.03.33-.06.42-.08-.09.02-.21.05-.42.1ZM190.23,434.48c.21.05.47.06.74.05.06.47,0,.95-.18.93.09-.31-.31-.58-.57-.98ZM193.86,443.88c-.27.19-.36-.07-.4-.35.13-.02.28-.07.47-.16,0-.05.02-.11.03-.17-.03.26-.06.5-.11.68Z"/>
        <path class="cls-1" d="M194.35,442.1s.06-.09.11-.1c-.06-.12-.11-.22-.16-.3-.03.14-.07.29-.1.42.05,0,.1-.01.15-.02Z"/>
        <path class="cls-1" d="M38.84,440.09l.04.03c-.03-.05-.06-.11-.08-.19.02.07.02.11.04.16Z"/>
        <polygon class="cls-1" points="166.54 431.89 166.55 432.23 166.7 431.93 166.54 431.89"/>
        <path class="cls-1" d="M29.39,435.44c-.02-.12-.05-.24-.12-.35,0,.09.06.21.12.35Z"/>
        <path class="cls-1" d="M25.31,435.13l-.58-.48c.25.27.43.41.58.48Z"/>
        <path class="cls-1" d="M22.17,434.46c-.04.24-.05.42-.06.58,0,0,0,0,0,.01l.06-.59Z"/>
        <path class="cls-1" d="M72.06,432.87s.08-.02.12-.06c.28-.26.09-.16-.12.06Z"/>
        <path class="cls-1" d="M57.21,436.04c.16-.25.31-.49.48-.64-.26-.1-.47-.13-.48.64Z"/>
        <path class="cls-1" d="M88.64,431.24s0,.01,0,.02c.04,0,.07,0,.1,0l-.1-.02Z"/>
        <path class="cls-1" d="M58.38,435.42c-.26-.27-.49-.21-.69-.02.22.09.47.23.69.02Z"/>
        <path class="cls-1" d="M8.57,433.85l-.15-.06c0,.09,0,.16-.02.22l.17-.16Z"/>
        <path class="cls-1" d="M8.4,434.01l-.17.16c.08,0,.14-.01.17-.16Z"/>
        <path class="cls-1" d="M7.88,434.51l.35-.34c-.12,0-.27-.05-.35.34Z"/>
        <path class="cls-1" d="M12.72,434.47l.05-.49c-.03.1-.04.26-.05.49Z"/>
        <path class="cls-1" d="M13.98,434.33c-.3-.11-.76-1.05-1.18-.74l-.04.39c.2-.73.93,1.18,1.21.35Z"/>
        <path class="cls-1" d="M19.25,440.41l-1.06-.39c.18.52.43,1.23-.05,1.35,1.33,1.56-.28-1.17,1.11-.96Z"/>
        <path class="cls-1" d="M22.53,441.17c-.57.24,0,.76-.02,1.06.36-.48.45-.6.02-1.06Z"/>
        <path class="cls-1" d="M46.24,441.17l-.06,1.23c.44-.18,0-.48.06-1.23Z"/>
        <polygon class="cls-1" points="50.77 434.8 50.34 434.03 50.14 435.16 50.77 434.8"/>
        <polygon class="cls-1" points="53.44 443.58 53.25 443.76 53.98 443.31 53.44 443.58"/>
        <path class="cls-1" d="M93.26,443.14l-.13-1.52c-.3.27-.36,1.98.13,1.52Z"/>
        <path class="cls-1" d="M110.44,441.6c.19.76.67,1.25.97.5-.39-.1-.77-.7-.97-.5Z"/>
        <polygon class="cls-1" points="161.99 444.07 161.64 444.58 162.29 444.16 161.99 444.07"/>
      </g>
      <g>
        <path class="cls-1" d="M133.53,50.56c-.41-.31-1.36-.14-1.17.72l1.6.61-.43-1.33Z"/>
        <path class="cls-1" d="M130.57,56.33c.77,1.01,2.13,2.17,3.6,1.52-1.53-1-.89-1.24-2.72-2.32-.19-.86.51-1.5,1.1-1.35-.41-.3.35-1.33-.65-1.79-1.23,1.12-1.28,2.53-.27,4.01-.35.32-.77,0-1.06-.06Z"/>
        <path class="cls-1" d="M128.08,140.17l.19-.54c-.1.15-.16.33-.19.54Z"/>
        <path class="cls-1" d="M127.21,192.12c-.04-.4-.2-.56-.34-.58.1.37.2.67.34.58Z"/>
        <path class="cls-1" d="M125.45,200.99c.05-.19.07-.35.11-.52-.15.2-.23.4-.11.52Z"/>
        <path class="cls-1" d="M128.08,140.17l-.5,1.39c.52.1.39-.71.5-1.39Z"/>
        <path class="cls-1" d="M134.42,67.89c-.08-.29-.23-.53-.42-.75.07.24.13.47.17.71.09.01.16.02.25.05Z"/>
        <path class="cls-1" d="M126.79,117.27v-.42c-.18-.12-.4-.24-.65-.35l.65.77Z"/>
        <path class="cls-1" d="M126.54,99.7c-.06.4,1.3.54,1.89.69-.56-.22-.82-.52-.93-.87-.26,0-.57.05-.96.18Z"/>
        <path class="cls-1" d="M128.93,71.83l-.19-.49c.06.13.11.35.19.49Z"/>
        <path class="cls-1" d="M126.49,129.85c-.2.03-.38.09-.49.16.17,0,.33-.06.49-.16Z"/>
        <path class="cls-1" d="M136.68,621.42c-.1-.01-.16,0-.24,0,.14.1.23.13.24,0Z"/>
        <path class="cls-1" d="M129.97,641.79l-.07-.28c-.26-.03-.51-.06-.76-.06l.83.34Z"/>
        <path class="cls-1" d="M123.71,217.22s.02-.04.03-.07c-.15-.43-.13-.19-.03.07Z"/>
        <path class="cls-1" d="M124.71,366.24c1.21-1.69,1.56,2.75,2.9.21-.53.24-2.11-2.31-2.9-.21Z"/>
        <path class="cls-1" d="M134.24,68.34c.02.24.03.48.01.72.04-.33.04-.55-.01-.72Z"/>
        <path class="cls-1" d="M127.61,366.44h.01l.13-.26c-.06.11-.09.17-.14.26Z"/>
        <path class="cls-1" d="M124.53,254.62c.24-.08.42-.23.59-.38-.14.01-.31.1-.59.38Z"/>
        <path class="cls-1" d="M126.45,226.76l-.18.69c.12-.27.17-.5.18-.69Z"/>
        <path class="cls-1" d="M126.44,269.09c-.1.38-.29.5-.11,1.01.07-.05.12-.09.16-.16-.19-.19-.27-.43-.06-.86Z"/>
        <path class="cls-1" d="M126.45,284.15c.1-.08.18-.19.27-.28-.03-.15-.05-.32-.07-.48l-.2.76Z"/>
        <path class="cls-1" d="M136.03,575.65c-.38.33-.8.54-1.22.7.96-.23,1.31,1.98,1.22-.7Z"/>
        <path class="cls-1" d="M133.66,67.9c.34.09.51.22.58.45-.02-.17-.04-.34-.07-.5-.2-.04-.39-.05-.51.05Z"/>
        <path class="cls-1" d="M137.13,269.7l-.2,2.39c.13-.67.2-1.54.2-2.39Z"/>
        <path class="cls-1" d="M135.83,467.63l.16.55c.03-.21,0-.41-.16-.55Z"/>
        <path class="cls-1" d="M137.13,279.19c-.48.43-.76.88-.94,1.35.11.1.19.21.35.28l.59-1.63Z"/>
        <path class="cls-1" d="M134.8,576.35s.01,0,.01,0c0,0,0,0-.01,0Z"/>
        <path class="cls-1" d="M138.02,592.11c.04-2.28-1.74-1.07-2.77-1.55-.5-2.72,1.31-1.26,2.22-2.19-.47-1.7-2.11-3-2.04-4.27.29-.09.4-.34.77-.05-1.42-1.8-.07-5.33-1.85-7.42.16-.16.31-.23.44-.27-.89.34-1.8.39-2.44.32-.03-1.02-1.13-1.9.04-2.28-.03.63.44.68.8.97l-.51-1.07c1.67-.96.58,1.46,1.82,1.46-.54-2.09-1.93-4.52-1.46-6.12,1.64-.33.55,3.74,2.01,1.61l-.63,2.48c2.58-1.89-.18,1.5,2.58-.23.47-3.26-.83-3.64-.36-6.89-.91-.73-1.35.24-2.26-.49-1.64-4.62,4.12-3.64,1.94-7.03-1.09-.88-3.16-1.22-2.07-3.64l1.85.82c.18-3.15-2.66-1.8-1.42-5.1.73.59.61,2.48.83,2,1.46-2.14-1.05-1.51-1.05-3.16l1.64-.34c-.26-3.36-1.44-7.06-1.74-10.78.49.21,1,.84,1.5-.03-.82-4.69.2-10.01,1.17-14.54l-1.42-1.73c.02-.4.64-.75.91-.31.54-1.76-.9-.09-1.45-.94-.1-1,.81-1.33,1.24-.69-1.2-3.11-2.59-8.86-1.07-12.14l.42.64c.57-2.55-2.9-2.88-1.58-5.25l.25.45c.61-5.54-.68-11.66,1.45-15.89-2.04-.8.91-5.48-1.93-5.84,1.41-3.16,1.92-2.26,2.86-6.71.13-1.19-1.78-1.77-2.07-3.24l1.49-.04-1.56-2,1.78-1.06-.38-1.38c-.09.55-.67,1.17-1.1,1.08-.67-2.16,1.04-5.25,1.8-5.31l-1.26-5.1c.6.11.8.97,1.18,1.64-1.52-2.72,1.57-.49.18-2.99-.34.33-.89-.18-1.19-.24.9-1.24.91-4.07.53-6.17l1.02.4c.26-3.78-.49-7.97-.47-12.22-.48,1.52-2.25,1.17-2.42-.07l1.57-.5c-.97-.8-.59,1.3-1.78-.35.18-1.59,1.79-1.07,2.3-.16l-.54-1.93c.47-.11.72.34,1.31.46-.98-.79,1.58-3.33-.12-4.47l.47-.11c.01-4.24-.53-6.17-.61-9.63-1.36-.07-1.06-1.42-2.15-2.45.43-2.54,1.5-5.36,1.38-8.42-.67-2.15-1.15-.63-1.95-1.6,1.23-.16,1.12-3.22,2-1.63-.2-3.67-.24-4.69-1.25-9.34-.51.5-.73,1.07-1.15.78-.2-.84.52-1.92,1.11-1.8l.13.22c-1.85-5.22,3.6-12.04,1.03-16.19l.13.23-1.34-4.31c.21-1.98.93,1.19,1.69-.28-2.06-4.65.3-7.34-1.07-11.17,3.64-2.96-.26-10.51,2.07-14.51l-.86.23c-.84-1.03.49-1.25.69-2.01-.67.11-.77,1.12-1.24.48-1.03-8.75,1.25-18.06,2.03-27.04.23-3.28-4.44-1.86-2.39-6l1.59,1.17c-1.91-6.62.07-13.54-1.56-20.02.37.39.85.4.84,1.03,1.16-1.37.06-5.06-.89-5.09.11-1.01.85-.23,1.33-.86.68-1.37-1.48-3.45-.33-4.18.19-.12.38.39.46.64-.56-.9.14-4.17-1.19-3.31.64-2.43-.59-4.65.2-6.6-1.49-1.27.72-4.17-1.39-4.57,2.18.17,1.76-4.27.73-5.8.66.52.68-1.34,1.6-.73-.03-1.76-.44-3.36-1.56-3.06,2.61-3.23-2.1-6.5,1.24-8.32-1.17-5.22-1.96-10.04-2.48-14.73,2.18.17.22,5.19,2.5,4.98-.9-4.45-2.76-7.02-2.24-11.43.3-1.14.94.65,1.31,1.03-.9-4.45.2-8.6-.99-12.55.2.01.42.44.59.84-.07-.78.32-1.81-.67-1.73l.27.76c-1.44,1.24-3-3.1-3.76-3.24,2.83,1.32.71-3.91,4.29-1.81-.19-.51-.66-1.16-1.32-1.04.19-.76.58-1,1.33-.23-.54-2.79-1.59-1.8-1.57-4.33.48,0,.66.52,1.23.78-.93-1.28-1.87-2.57-1.46-4.71.29.13.66-.12.66.52-.14-3.67-2.49-6.26-1.58-10.29,2.08,1.19.68-1.37,2.48-1.58l-.54-2.17-.87.87c.03-1.9-1.28-3.57-.69-5.21l.74,1.41-.34-3.56-.68,2.01c-.93-1.92-2.28.21-1.78-2.32.18.51.02-1.9,1.08-2.89,0,0,0,0,0,0-.57-.94-1.18-1.9-.73-3.31.58-.36,1.99.29,2.37.06-1.5-.93-.42-4.44-2.02-5.62.38.39,1.32.41,1.51.28l-1.22-.78c.39-.88.58-1.01,1.33-.86.22-2.64-2.28.84-1.3-2.3.1.25.28.13.47.64.51-3.15-.78-6.09-.17-8.99,1.81-.85.44,2.53,1.97,1.55-.33-4.18-2.17-8.65-1.74-12.69l-.2.75c-2.56-.56,1.26-3.01.06-5.05.19.5,1.42.66,1.14.52.41-2.77-.63-5.66-1.43-9.85l.66.52c.59-1.63.34-4.3.64-6.06-.66-.52-.55-1.53-1.5-.92,3.74-5.43-2.01-10.36,1.11-15.18,0,.58.57,1.37.58.92l-.61-4.11c-1.11.32-.67.54-1.54,1.4-.66-.52-1.17-1.68-1.17-2.7.74,1.85,1.79-.02,2.41-.81-.34.13-.72-.14-1.07-.07,1.98-2.14-2.24-.36-.91-3.29l.58.15c-.3-1.1-1.07-2.11-.91-3.29,1.29-.49.6,1.17,1.66,1.24-.07-1.66-2.44-3.28-1.16-4.78.36.7.37,1.72.72,2.42,1.51-1.64,1.13-1.83,1.37-3.04l-.03.12.69-2.81-.41.72c-3.36-2.08-.61-4.23-2.82-7.03,2.08,2.72,1.21.45,2.67.66.41-.71.86-1.8,1.27-1.49-1.18-1.32.93-2.21-.79-4.07.47-.08.05-1.41,1.23-1.12-.37-1.72-.82.41-1.41.26-1.61-2.65,1.95-6.23-.26-10.04-.91-3.29-2.49-3.9-3.28-6.95.75-1.03,1.71.84,1.71.84.69-1.66.57-2.91.03-4.48.41.32.76,0,1.29-.49-.12-1.26-1.71-.84-1.02-2.5.52.28,1.36.65,1.89,1.25-.43-1.48-1.31-2.94-1.73-4.47.82-.41,1.24.92,1.78,1.46-.37-1.72-.74-4.46-2.04-4.99l-.46,1.1c-.06-.63,1.11-.32,1.35.14,1.02,1.48-.45,2.13-.92,2.21l-.3-1.09c-2.76,1.12.44,4.38.28,6.58l-2.01-.92,1.66,2.25c-.52.48-1.64.81-1.94-.28-.99,1.57.71,1.39-.39,2.75-.17.15-.27.08-.35-.06l.6,1.54c-.42-.3-1.42.26-1.13-.69-1.16,2.76,1.5,4.45-.02,5.49l-.12-.23c.68,3.83,1.47.37,3.2,3.24l-3.63,1.93,1.47.38c-.05.4-.16,1.18-.75,1.03,1.01,1.47.64-.25,1.59.6-1.34,1.9.63,5.25-1.72,5.68,1.12.68.86-1.82,1.64.21-2.52.58.43,2.35-.73,4.09-1.3-.53-.61-2.18-1.78-.44,2.2,1.05-.48,3.39-.06,4.85,1.75.07.73,3.19,1.31,5.65-.59-.16-.96,4.63-1.6,6.92l-.29-.07c1.77.44,1.44,2.8,1.8,4.52-1.06-.07-1.48-.38-1.95-1.31v1.62c.58.38.87.89,1.08,1.93l-1.32-.41c.07,2.15,1.56,4.33.67,7.1,1.23.16,3.44-2.2,4.26.73-.67.11-1.81.22-2.08-.55.09.25.55.89.27,1.4l-1.12-1.17c-.49,1.26.94.66.83,1.67-.95-.02-.68.75-1.44.6-.09-.26.39-.88.02-1.26-.17,1.14-.74,2.51-1.46,2.96.54-.1,1.28,0,1.41.83.07,2.15-1.15.74-1.63,1.99.66.52-.02,1.89,1.4,1.93,0,.63-.67.75-1.06.99.63,1.11.18,5.2,1.69,3.95l.1-.29c.03.05.03.12.06.18h0s0,0,0,0c1.42,3.65-.81,7.58-.2,11.2h-.48c.54,2.16.32,4.8,1.35,6.35,0,.64-.87,1.51-1.44,1.24.36,1.65.89,1.84.11,4.22-.83-1.66-.74.57-.61-1.7-.41,2.15-1.17,2.63.13,4.94-1.22-.78-1.54,1.62-1.17,2.64l.87-1.5c.18,1.15.07,2.15-.03,3.17l-1.6-.55c-1.95,4.39,3.32,7.92.05,11.27,1.12,1.16.79-2.39,2.1-1.35-.22,2.02-2.52,4.13-2.52,4.76-.89,2.77,2.34,2.58,1.74,5.48.57-.37,2.1-.72,2.64,1.44-.21,2.02-2.4,2.49-2.86,1.21-.05-.48.13-.72.33-.7-.21-.65-.45-1.51-1.07-.71l.57.26c-.58,1-.52,3.79-1.46,3.13.55,1.53.94.65,1.24-.48-.83,2.59-.02,4.05-.58,6.72.32-.42.99-.82.98-.39-.71,3.92,1.09,1.72,1.34,4.38-.87,1.51-2.08-.54-1.35,2.13-.59,1.63-1.52.35-1.98-.3,1.1,2.43-.73,4.55-.93,5.94l-.46-1.28c.27.77.27,1.39.26,2.03l1.15-.73c-.2.75-.2,1.39-.68,1.38.75.78,1.9-.59,2.93.95-.58,1,.62,3.06-.89,3.4.52-3.16-1.53.35-1.77-2.32.18.52.17,1.14-.03,1.9-.17.11-.31-.11-.4-.31-1.36,3.02,1.72,1.39,1.68,4.52-.86-.4-1.62.73-1.44,1.24.02-1.26,1.43-.6,2.08.55-.67,2.01.5,2.18.42,3.23l.31-1.2c.85.41.74,1.41,1.01,2.81-.67.12-.46-1.27-.75-.77,1.5,1.55-1.56,3.51-.54,5.67-.58,1-1.61.1-2,.98,1.11,2.43-1.17,2.63-.26,5.18,1.15-.74.87-.86,1.99.93l-.81-4.19,1.67,2.69c.02-1.27-.72-2.67-.53-3.43.94,1.28.65,1.15,1.61.54-1.73,1.73,1.01,3.43-.16,5.44l-2.85-.06c-1.27,3.01,1.46,5.35.75,9.26l.49-1.26c1.13.52.16,2.41.62,3.68-.95-.12-1.3.67-1.89,1.21.71-.07-.06,2.86,1.84,3.22l-1.25,1.74c-.51,3.16,2.71,3.6,2.39,6.63-1.03-.91-1.71.46-2.45-1.57,0,1.01-.18,1.92.48,1.94-.6.59,1.28,2.81.38,3.74.42.43,1.42.57,1.34,1.7-.19.12-.47,0-.47,0,.47,0,.64,1.78,1.69.79-2.97,3.12.22,8.72-2.33,11.44.32,2.21.63,4.87.69,6.88-.28-.13-.47,0-.38-.39-.89,2.77,2.73,1.7,1.74,4.85-1.54,1.61-.83-1.67-1.41-.67-3.13.44.43,3.8-1.4,5.92l-.18-.51c-1.06,1.62,1.19,3.95.96,6.6,0,0-.28-.13-.47-.02,1.6,1.81,2.13,5.24,2.57,7.78-1.23-.79-.65-1.16-1.89-.67.18,1.14,2-.33,2.35,1.94-.67.74-1.26,2.38-2.59,2.6l-.07-2.15c-1.72,1.1.06,2.78-.24,3.91l-.75-.14c.24,3.29,2.14,3.34,2,6.88l.57-.37c1.88,1.93-1.05,1.62.34,3.55l-1.9.58c.46,1.28,1.84,4.47,2.2,6.76-1.41-1.3-2.13-3.98-2.97-5.63-.01,1.27.14,4.3,1.08,4.96-.18-.51-.65-1.15-.36-1.66,1.5,1.55,2.23,3.59,2.2,6.12-3.69-.45-.93,6.57-3.8,8.4,1.37,4.46-.58,8.85-.36,14.05,2.87-1.84.08,1.52,3.03,1.2.19,1.21.14,1.67-.05,1.78l-1.76,3.67c-.86.87-.65-1.15-1.31-1.04-.23,2.65-1.25,1.11-2.03,2.87,1.05-.36,1.51.92,1.11,2.43l1.36-2.13c1.57,3.7-2.47,3.2-.92,6.93l-.93-1.18c.55,1.92-.02,7.07,2.35,8.94-.34.34-1.15.79-1.36-.06-.36,4.58,2.52,10.19,1.06,13.75l-.72-.35c.21.85,1.35,1.49.63,2.56-.3-.06-.72-.34-.76.05.25.45,1.26,2.27.84,3.4l-.81-.97c-.94,4.47,1.98,6.85,2.47,10.6-2.12,0-2.81,3.5-3.16,5.26l-.3-.06c-.26,5.2,1.76,8.83,2.59,13.65-2.3,2.99-.97,10.13-2.26,14.93.38-.73,1.65.12,1.87.97-.43,1.13,1.47,3.12-.47,2.94l.04-.4c-1.91.85-1.4,3.17-1.45,4.98l2.55.3c-3.7,4.73,1.36,12.4-1.96,14.98.64,1.14.63,2.56,1.27,3.69l-1.37-.06c-.35,3.16-.52,4.74-.19,8.65l-.98-.8c-.09,2.21,3.94,2.79,4.02,4.82l-2.04.61c.03,3.85-1.76,7.74.09,11.55-.3-.06-.89-.18-.97-.8-.05,1.81-1.38,7.01,1.42,6.35-1.82.05-.18,3.97.62,6.05l-1.34-.32c1.72,1.75,2.19,1.81,2.66,4.26-.18.58-1.08.51-.73-.26-.7,1.93,1.27,1.51.56,3.85l-.86-.87c-.1,1.99.36,1.83,1.36,2.93.54,1.25-.34,3.78-1.56,4.07.74.27,1.73,1.36,1.38,2.53-.46.16-.74-.27-.88-.48-.91,3.33,1.56,4.95.24,7.24-.45.05-.67.2-.8.39.03-2.64.11-4.77.2-4.57-1.24,0-1.46,2.14-3.17.44.93,1.71,2.96,4.65,2.38,6.73-.12.1-.24.2-.43.28l-.14-.22c-.12.48,0,.91.2,1.32-.2.66-.35,1.09-.37,1.72-1.03.25-.55,2.45-.6,3.51,1.36-.09,1.14,1.31,2.26,0-.1.17-.16-.2-.22-.91-.04-.16-.06-.35-.14-.45.04.02.08.05.12.07-.04-.7-.07-1.61-.09-2.65.69.84,1.27,1.72.52,2.9.87.55,1.77,1.15,2.19,1.49-1.89,1.46-2.91,4.27-4.08,4.66.76,3.25.5,7.66,3.05,9.7.33.92-.73,1.06-1.13,1.41-.26-.53-.22-1.17-.58-1.46.65,1.85.25,5.48,2.03,5.92-.8,2.33-1.64-1.31-1.35,1.89l-.54-.43c-2.84,6.3,4.54,10.24.89,17.22.22-.48.33-.73.63-.82-1.61,7.96,1.51,16.4-1.04,24.26-.51,2.23.62,2.47,1.49,3.84l-1.46.48,1.68,2.33c1.23,3.3-3.57,5.72-1.25,9.9l.98-.54c-.19,1.5.58,4.76-.55,4.51.18.15,1.02.49.51,1.08l-.76.05,1.31,3.69c-.55,2.86-3.02-.45-3.17,3.73.29,1.55,2.22,4.42,2.73,3.84.04-.63.47-1.6,1.24-1.65l.4,1.42c2.25.26,4.54,1.35,6.11-2.14l-1.37-2.43,1.09-.78.07,2.04c1.03-1.16.12-1.89-.5-2.72.58-.19.98-.54,1.2-1.02l-2.15-2.38c.88-.29,1.74,1.07,2.23-.53-1-1.12-1.97,1.07-2.62-.78,1.02-1.16,1.85-.82.98-2.19.58-.19.95.1,1.2.64-.69-1.21-.29-3.21-1.49-3.84,1.26-1.21-.33-4.1,1.8-3.98-.51-.38-1.67-2.14-1.76-3.25,2.54,2.04.15-4.17,2.88-3.63-2.29-1.51-1.02-5.44-2.29-8.11.18.15.55.44.43.68.19-1.5.88-1.94,1.31-2.9-1.89-.19-2.32-2.53-3.49-3.79,1.82-1.84,2.22,1.12,3.97.54-1.53.09-1.53-3.2-2.8-2.57,1.13-1.41.55-1.21,2.11-1.94-2.36-.25-.4-1.31-1.85-2.48,1.16-2.04,2.21-.52,1.49-2.76.72-1.06,1.56.93,1.56.93ZM133.93,538.87h.03c.03.46.06.85.08,1.1-.02-.23-.05-.55-.1-1.1ZM133.91,534.4c-.05.54-.06,1.22-.05,1.94-.47.16-.95-.01-.93-.46.31.24.58-.81.98-1.48ZM124.52,543.86c-.19-.71.07-.95.35-1.04.02.33.07.73.16,1.24.05.02.11.06.17.08-.26-.07-.5-.14-.68-.28Z"/>
        <path class="cls-1" d="M126.29,545.13c.03.1.09.16.1.29.12-.14.22-.28.3-.42-.14-.09-.29-.17-.42-.25,0,.13.01.26.02.38Z"/>
        <path class="cls-1" d="M128.3,139.54l-.03.09c.05-.08.11-.15.19-.2-.07.06-.11.06-.16.1Z"/>
        <polygon class="cls-1" points="136.5 472.61 136.16 472.62 136.46 473.01 136.5 472.61"/>
        <path class="cls-1" d="M132.95,114.89c.12-.05.24-.14.35-.32-.09.01-.21.15-.35.32Z"/>
        <path class="cls-1" d="M133.26,104.25l.48-1.51c-.27.65-.41,1.13-.48,1.51Z"/>
        <path class="cls-1" d="M133.93,96.06c-.24-.1-.42-.13-.58-.16,0,0,0,.01-.01.02l.59.14Z"/>
        <path class="cls-1" d="M135.52,226.2c0,.11.02.22.06.32.26.74.16.24-.06-.32Z"/>
        <path class="cls-1" d="M132.36,187.47c.25.41.49.82.64,1.25.1-.69.13-1.23-.64-1.25Z"/>
        <path class="cls-1" d="M137.15,269.44s-.01,0-.02,0c0,.09,0,.17,0,.27l.02-.26Z"/>
        <path class="cls-1" d="M132.97,190.52c.27-.69.21-1.27.02-1.8-.09.57-.23,1.23-.02,1.8Z"/>
        <path class="cls-1" d="M134.54,60.59l.06-.39c-.09,0-.16-.02-.22-.05l.16.44Z"/>
        <path class="cls-1" d="M134.38,60.15l-.16-.44c0,.2.01.38.16.44Z"/>
        <path class="cls-1" d="M133.88,58.79l.34.92c0-.32.05-.71-.34-.92Z"/>
        <path class="cls-1" d="M133.92,71.43l.49.12c-.1-.07-.26-.11-.49-.12Z"/>
        <path class="cls-1" d="M134.06,74.72c.11-.79,1.05-1.97.74-3.07l-.39-.1c.73.52-1.18,2.42-.35,3.17Z"/>
        <path class="cls-1" d="M127.99,88.46l.39-2.76c-.52.48-1.23,1.12-1.35-.14-1.56,3.48,1.17-.72.96,2.9Z"/>
        <path class="cls-1" d="M127.23,97.02c-.24-1.48-.76.02-1.06-.06.48.94.6,1.17,1.06.06Z"/>
        <path class="cls-1" d="M127.22,158.84l-1.23-.15c.18,1.14.48.01,1.23.15Z"/>
        <polygon class="cls-1" points="133.6 170.66 134.36 169.54 133.23 169.02 133.6 170.66"/>
        <polygon class="cls-1" points="124.81 177.64 124.63 177.14 125.08 179.05 124.81 177.64"/>
        <path class="cls-1" d="M125.25,281.47l1.52-.35c-.27-.77-1.98-.93-1.52.35Z"/>
        <path class="cls-1" d="M126.8,326.29c-.76.49-1.25,1.75-.5,2.53.1-1.01.7-2.01.5-2.53Z"/>
        <polygon class="cls-1" points="124.32 460.72 123.81 459.82 124.24 461.52 124.32 460.72"/>
      </g>
      <g>
        <path class="cls-1" d="M4.72,252.59c-.12.41-.05,1.36.28,1.17l.23-1.6-.51.43Z"/>
        <path class="cls-1" d="M6.93,255.55c.39-.77.83-2.13.58-3.6-.38,1.53-.48.89-.89,2.72-.33.19-.57-.51-.52-1.1-.12.41-.51-.35-.69.65.43,1.23.97,1.28,1.54.27.12.35,0,.77-.02,1.06Z"/>
        <path class="cls-1" d="M39.08,258.04l-.21-.19c.06.1.13.16.21.19Z"/>
        <path class="cls-1" d="M59,258.91c-.15.04-.22.2-.22.34.14-.1.26-.2.22-.34Z"/>
        <path class="cls-1" d="M62.4,260.67c-.07-.05-.13-.07-.2-.11.08.15.15.23.2.11Z"/>
        <path class="cls-1" d="M39.08,258.04l.53.5c.04-.52-.27-.39-.53-.5Z"/>
        <path class="cls-1" d="M11.36,251.7c-.11.08-.2.23-.29.42.09-.07.18-.13.27-.17,0-.09,0-.16.02-.25Z"/>
        <path class="cls-1" d="M30.3,259.33h-.16c-.05.18-.09.4-.13.65l.3-.65Z"/>
        <path class="cls-1" d="M23.56,259.58c.15.06.21-1.3.26-1.89-.09.56-.2.82-.33.93,0,.26.02.57.07.96Z"/>
        <path class="cls-1" d="M12.88,257.19l-.19.19c.05-.06.13-.11.19-.19Z"/>
        <path class="cls-1" d="M35.12,259.63c.01.2.04.38.06.49,0-.17-.02-.33-.06-.49Z"/>
        <path class="cls-1" d="M223.6,249.44c0,.1,0,.16,0,.24.04-.14.05-.23,0-.24Z"/>
        <path class="cls-1" d="M231.41,256.15l-.11.07c-.01.26-.02.51-.02.76l.13-.83Z"/>
        <path class="cls-1" d="M68.62,262.41s-.02-.02-.03-.03c-.16.15-.07.13.03.03Z"/>
        <path class="cls-1" d="M125.76,261.41c-.65-1.21,1.05-1.56.08-2.9.09.53-.89,2.11-.08,2.9Z"/>
        <path class="cls-1" d="M11.54,251.88c.09-.02.18-.03.28-.01-.13-.04-.21-.04-.28.01Z"/>
        <path class="cls-1" d="M125.84,258.51h0s-.1-.14-.1-.14c.04.06.07.09.1.14Z"/>
        <path class="cls-1" d="M82.96,261.6c-.03-.24-.09-.42-.15-.59,0,.14.04.31.15.59Z"/>
        <path class="cls-1" d="M72.28,259.67l.26.18c-.1-.12-.19-.17-.26-.18Z"/>
        <path class="cls-1" d="M88.51,259.68c.14.1.19.29.39.11-.02-.07-.04-.12-.06-.16-.07.19-.17.27-.33.06Z"/>
        <path class="cls-1" d="M94.28,259.67c-.03-.1-.07-.18-.11-.27-.06.03-.12.05-.18.07l.29.2Z"/>
        <path class="cls-1" d="M206.05,250.09c.13.38.21.8.27,1.22-.09-.96.76-1.31-.27-1.22Z"/>
        <path class="cls-1" d="M11.37,252.46c.03-.34.08-.51.17-.58-.07.02-.13.04-.19.07-.02.2-.02.39.02.51Z"/>
        <path class="cls-1" d="M88.74,248.99l.92.2c-.26-.13-.59-.2-.92-.2Z"/>
        <path class="cls-1" d="M164.63,250.29l.21-.16c-.08-.03-.16,0-.21.16Z"/>
        <path class="cls-1" d="M92.38,248.99c.16.48.34.76.52.94.04-.11.08-.19.11-.35l-.62-.59Z"/>
        <path class="cls-1" d="M206.32,251.33s0-.01,0-.01c0,0,0,0,0,.01Z"/>
        <path class="cls-1" d="M212.36,248.11c-.87-.04-.41,1.74-.6,2.77-1.04.5-.48-1.31-.84-2.22-.65.47-1.15,2.11-1.64,2.04-.04-.29-.13-.4-.02-.77-.69,1.42-2.04.07-2.85,1.85-.06-.16-.09-.31-.1-.44.13.89.15,1.8.12,2.44-.39.03-.73,1.13-.87-.04.24.03.26-.44.37-.8l-.41.51c-.37-1.67.56-.58.56-1.82-.8.54-1.73,1.93-2.35,1.46-.13-1.64,1.43-.55.62-2.01l.95.63c-.73-2.58.58.18-.09-2.58-1.25-.47-1.4.83-2.64.36-.28.91.09,1.35-.19,2.26-1.77,1.64-1.39-4.12-2.7-1.94-.34,1.09-.47,3.16-1.39,2.07l.32-1.85c-1.21-.18-.69,2.66-1.96,1.42.23-.73.95-.61.77-.83-.82-1.46-.58,1.05-1.21,1.05l-.13-1.64c-1.29.26-2.71,1.44-4.13,1.74.08-.49.32-1-.01-1.5-1.8.82-3.84-.2-5.57-1.17l-.66,1.42c-.15-.02-.29-.64-.12-.91-.68-.54-.04.9-.36,1.45-.38.1-.51-.81-.26-1.24-1.19,1.2-3.4,2.59-4.66,1.07l.25-.42c-.98-.57-1.1,2.9-2.01,1.58l.17-.25c-2.12-.61-4.47.68-6.09-1.45-.31,2.04-2.1-.91-2.24,1.93-1.21-1.41-.87-1.92-2.57-2.86-.46-.13-.68,1.78-1.24,2.07v-1.49s-.78,1.56-.78,1.56l-.41-1.78-.53.38c.21.09.45.67.42,1.1-.83.67-2.01-1.04-2.04-1.8l-1.96,1.26c.04-.6.37-.8.63-1.18-1.04,1.52-.19-1.57-1.15-.18.13.34-.07.89-.09,1.19-.48-.9-1.56-.91-2.37-.53l.15-1.02c-1.45-.26-3.06.49-4.69.47.58.48.45,2.25-.03,2.42l-.19-1.57c-.31.97.5.59-.13,1.78-.61-.18-.41-1.79-.06-2.3l-.74.54c-.04-.47.13-.72.18-1.31-.3.98-1.28-1.58-1.71.12l-.04-.47c-1.63-.01-2.37.53-3.69.61-.03,1.36-.54,1.06-.94,2.15-.97-.43-2.06-1.5-3.23-1.38-.82.67-.24,1.15-.61,1.95-.06-1.23-1.23-1.12-.62-2-1.41.2-1.8.24-3.58,1.25.19.51.41.73.3,1.15-.32.2-.74-.52-.69-1.11l.09-.13c-2,1.85-4.62-3.6-6.21-1.03l.09-.13-1.65,1.34c-.76-.21.46-.93-.11-1.69-1.78,2.06-2.81-.3-4.28,1.07-1.14-3.64-4.03.26-5.56-2.07l.09.86c-.4.84-.48-.49-.77-.69.04.67.43.77.18,1.24-3.36,1.03-6.93-1.25-10.37-2.03-1.26-.23-.71,4.44-2.3,2.39l.45-1.59c-2.54,1.91-5.19-.07-7.68,1.56.15-.37.15-.85.4-.84-.52-1.16-1.94-.06-1.95.89-.39-.11-.09-.85-.33-1.33-.53-.68-1.32,1.48-1.6.33-.05-.19.15-.38.24-.46-.34.56-1.6-.14-1.27,1.19-.93-.64-1.78.59-2.53-.2-.49,1.49-1.6-.72-1.75,1.39.07-2.18-1.64-1.76-2.23-.73.2-.66-.51-.68-.28-1.6-.67.03-1.29.44-1.17,1.56-1.24-2.61-2.49,2.1-3.19-1.24-2,1.17-3.85,1.96-5.65,2.48.06-2.18,1.99-.22,1.91-2.5-1.71.9-2.69,2.76-4.38,2.24-.44-.3.25-.94.4-1.31-1.7.9-3.3-.2-4.81.99,0-.2.17-.42.32-.59-.3.07-.7-.32-.66.67l.29-.27c.48,1.44-1.19,3-1.24,3.76.51-2.83-1.5-.71-.69-4.29-.2.19-.44.66-.4,1.32-.29-.19-.38-.58-.09-1.33-1.07.54-.69,1.59-1.66,1.57,0-.48.2-.66.3-1.23-.49.93-.98,1.87-1.8,1.46.05-.29-.05-.66.2-.66-1.41.14-2.4,2.49-3.94,1.58.46-2.08-.53-.68-.61-2.48l-.83.54.33.87c-.73-.03-1.37,1.28-2,.69l.54-.74-1.36.34.77.68c-.74.93.08,2.28-.89,1.78.2-.18-.73-.02-1.11-1.08,0,0,0,0,0,0-.36.57-.73,1.18-1.27.73-.14-.58.11-1.99.02-2.37-.36,1.5-1.7.42-2.15,2.02.15-.38.16-1.32.11-1.51l-.3,1.22c-.34-.39-.39-.58-.33-1.33-1.01-.22.32,2.28-.88,1.3.09-.1.05-.28.25-.47-1.21-.51-2.34.78-3.45.17-.33-1.81.97-.44.6-1.97-1.6.33-3.32,2.17-4.87,1.74l.29.2c-.21,2.56-1.15-1.26-1.94-.06.19-.19.25-1.42.2-1.14-1.06-.41-2.17.63-3.78,1.43l.2-.66c-.63-.59-1.65-.34-2.32-.64-.2.66-.59.55-.35,1.5-2.08-3.74-3.97,2.01-5.82-1.11.22,0,.53-.57.35-.58l-1.57.61c.12,1.11.21.67.54,1.54-.2.66-.64,1.17-1.03,1.17.71-.74,0-1.79-.31-2.41.05.34-.05.72-.03,1.07-.82-1.98-.14,2.24-1.26.91l.06-.58c-.42.3-.81,1.07-1.26.91-.19-1.29.45-.6.48-1.66-.64.07-1.26,2.44-1.83,1.16.27-.36.66-.37.93-.72-.63-1.51-.7-1.13-1.17-1.37l.05.03-1.08-.69.27.41c-.8,3.36-1.62.61-2.69,2.82,1.04-2.08.17-1.21.25-2.67-.27-.41-.69-.86-.57-1.27-.51,1.18-.85-.93-1.56.79-.03-.47-.54-.05-.43-1.23-.66.37.16.82.1,1.41-1.02,1.61-2.39-1.95-3.85.26-1.26.91-1.49,2.49-2.66,3.28-.39-.75.32-1.71.32-1.71-.64-.69-1.12-.57-1.72-.03.12-.41,0-.76-.19-1.29-.48.12-.32,1.71-.96,1.02.11-.52.25-1.36.48-1.89-.57.43-1.13,1.31-1.72,1.73-.16-.82.35-1.24.56-1.78-.66.37-1.71.74-1.91,2.04l.42.46c-.24.06-.12-1.11.05-1.35.57-1.02.82.45.85.92l-.42.3c.43,2.76,1.68-.44,2.52-.28l-.35,2.01.86-1.66c.18.52.31,1.64-.11,1.94.6.99.53-.71,1.05.39.06.17.03.27-.02.35l.59-.6c-.12.42.1,1.42-.26,1.13,1.06,1.16,1.71-1.5,2.11.02l-.09.12c1.47-.68.14-1.47,1.24-3.2l.74,3.63.14-1.47c.15.05.45.16.4.75.56-1.01-.1-.64.23-1.59.73,1.34,2.01-.63,2.18,1.72.26-1.12-.7-.86.08-1.64.22,2.52.9-.43,1.57.73-.2,1.3-.84.61-.17,1.78.4-2.2,1.3.48,1.86.06.03-1.75,1.22-.73,2.17-1.31-.06.59,1.78.96,2.65,1.6l-.03.29c.17-1.77,1.08-1.44,1.73-1.8-.03,1.06-.14,1.48-.5,1.95h.62c.15-.58.34-.87.74-1.08l-.16,1.32c.82-.07,1.66-1.56,2.72-.67.06-1.23-.84-3.44.28-4.26.04.67.08,1.81-.21,2.08.1-.09.34-.55.54-.27l-.45,1.12c.48.49.25-.94.64-.83,0,.95.29.68.23,1.43-.1.09-.34-.39-.48-.02.44.17.96.74,1.14,1.46-.04-.54,0-1.28.32-1.41.82-.07.28,1.15.76,1.63.2-.66.73.02.74-1.4.24,0,.29.67.38,1.06.43-.63,1.99-.18,1.51-1.69l-.11-.1s.04-.03.07-.06h0,0c1.4-1.42,2.91.81,4.29.2v.48c.83-.54,1.84-.32,2.43-1.35.25,0,.58.87.47,1.44.63-.36.7-.89,1.62-.11-.64.83.22.74-.65.61.82.41,1.01,1.17,1.89-.13-.3,1.22.62,1.54,1.01,1.17l-.58-.87c.44-.18.82-.07,1.22.03l-.21,1.6c1.68,1.95,3.04-3.32,4.32-.05.45-1.12-.91-.79-.52-2.1.77.22,1.58,2.52,1.82,2.52,1.06.89.99-2.34,2.1-1.74-.14-.57-.28-2.1.55-2.64.78.21.95,2.4.46,2.86-.19.05-.28-.13-.27-.33-.25.21-.58.45-.27,1.07l.1-.57c.38.58,1.45.52,1.2,1.46.59-.55.25-.94-.18-1.24.99.83,1.55.02,2.58.58-.16-.32-.31-.99-.15-.98,1.5.71.66-1.09,1.68-1.34.58.87-.21,2.08.82,1.35.63.59.13,1.52-.12,1.98.93-1.1,1.74.73,2.28.93l-.49.46c.29-.27.53-.27.78-.26l-.28-1.15c.29.2.53.2.53.68.3-.75-.23-1.9.36-2.93.38.58,1.17-.62,1.3.89-1.21-.52.13,1.53-.89,1.77.2-.18.44-.17.73.03.04.17-.04.31-.12.4,1.16,1.36.53-1.72,1.73-1.68-.15.86.28,1.62.47,1.44-.48-.02-.23-1.43.21-2.08.77.67.84-.5,1.24-.42l-.46-.31c.16-.85.54-.74,1.08-1.01.05.67-.49.46-.3.75.6-1.5,1.35,1.56,2.18.54.38.58.04,1.61.38,2,.93-1.11,1.01,1.17,1.99.26-.28-1.15-.33-.87.36-1.99l-1.61.81,1.03-1.67c-.49-.02-1.02.72-1.31.53.49-.94.44-.65.21-1.61.66,1.73,1.32-1.01,2.08.16l-.02,2.85c1.15,1.27,2.05-1.46,3.55-.75l-.48-.49c.2-1.13.93-.16,1.41-.62-.05.95.26,1.3.47,1.89-.03-.71,1.1.06,1.23-1.84l.67,1.25c1.21.51,1.38-2.71,2.54-2.39-.35,1.03.18,1.71-.6,2.45.39,0,.74.18.74-.48.23.6,1.08-1.28,1.43-.38.16-.42.22-1.42.65-1.34.05.19,0,.47,0,.47,0-.47.68-.64.3-1.69,1.2,2.97,3.34-.22,4.38,2.33.85-.32,1.87-.63,2.64-.69-.05.28,0,.47-.15.38,1.06.89.65-2.73,1.86-1.74.62,1.54-.64.83-.26,1.41.17,3.13,1.46-.43,2.27,1.4l-.2.18c.62,1.06,1.52-1.19,2.53-.96,0,0-.05.28,0,.47.69-1.6,2.01-2.13,2.98-2.57-.3,1.23-.44.65-.26,1.89.44-.18-.13-2,.75-2.35.28.67.91,1.26,1,2.59l-.82.07c.42,1.72,1.07-.06,1.5.24l-.06.75c1.26-.24,1.28-2.14,2.64-2l-.14-.57c.74-1.88.62,1.05,1.36-.34l.22,1.9c.49-.46,1.71-1.84,2.59-2.2-.5,1.41-1.52,2.13-2.16,2.97.49.01,1.65-.14,1.9-1.08-.2.18-.44.65-.63.36.6-1.5,1.38-2.23,2.35-2.2-.17,3.69,2.52.93,3.22,3.8,1.71-1.37,3.39.58,5.39.36-.71-2.87.58-.08.46-3.03.46-.19.64-.14.68.05l1.41,1.76c.33.86-.44.65-.4,1.31,1.02.23.43,1.25,1.1,2.03-.14-1.05.35-1.51.93-1.11l-.82-1.36c1.42-1.57,1.23,2.47,2.66.92l-.45.93c.73-.55,2.71.02,3.43-2.35.13.34.3,1.15-.02,1.36,1.76.36,3.91-2.52,5.27-1.06l-.13.72c.33-.21.57-1.35.98-.63-.02.3-.13.72.02.76.17-.25.87-1.26,1.3-.84l-.37.81c1.71.94,2.63-1.98,4.06-2.47,0,2.12,1.34,2.81,2.02,3.16l-.02.3c1.99.26,3.39-1.76,5.23-2.59,1.15,2.3,3.88.97,5.72,2.26-.28-.38.05-1.65.37-1.87.43.43,1.19-1.47,1.13.47l-.15-.04c.33,1.91,1.21,1.4,1.91,1.45l.11-2.55c1.81,3.7,4.75-1.36,5.74,1.96.44-.64.98-.63,1.41-1.27l-.02,1.37c1.21.35,1.82.52,3.32.19l-.31.98c.85.09,1.07-3.94,1.85-4.02l.23,2.04c1.48-.03,2.97,1.76,4.43-.09-.02.3-.07.89-.31.97.69.05,2.69,1.38,2.43-1.42.02,1.82,1.52.18,2.32-.62l-.12,1.34c.67-1.72.69-2.19,1.63-2.66.22.18.2,1.08-.1.73.74.7.58-1.27,1.48-.56l-.34.86c.76.1.7-.36,1.12-1.36.48-.54,1.45.34,1.56,1.56.1-.74.52-1.73.97-1.38.06.46-.1.74-.19.88,1.28.91,1.9-1.56,2.77-.24.02.45.08.67.15.8-1.01-.03-1.83-.11-1.75-.2,0,1.24.82,1.46.17,3.17.66-.93,1.78-2.96,2.58-2.38.04.12.08.24.11.43l-.08.14c.18.12.35,0,.5-.2.25.2.42.35.66.37.09,1.03.94.55,1.35.6-.03-1.36.5-1.14,0-2.26.06.1-.08.16-.35.22-.06.04-.13.06-.17.14,0-.04.02-.08.03-.12-.27.04-.62.07-1.01.09.32-.69.66-1.27,1.11-.52.21-.87.44-1.77.57-2.19.56,1.89,1.64,2.91,1.79,4.08,1.25-.76,2.94-.5,3.72-3.05.35-.33.41.73.54,1.13-.2.26-.45.22-.56.58.71-.65,2.1-.25,2.27-2.03.89.8-.5,1.64.73,1.35l-.17.54c2.41,2.84,3.93-4.54,6.6-.89-.19-.22-.28-.33-.32-.63,3.05,1.61,6.29-1.51,9.3,1.04.86.51.95-.62,1.47-1.49l.19,1.46.89-1.68c1.27-1.23,2.19,3.57,3.8,1.25l-.21-.98c.58.19,1.82-.58,1.73.55.06-.18.19-1.02.41-.51l.02.76,1.41-1.31c1.1.55-.17,3.02,1.43,3.17.59-.29,1.69-2.22,1.47-2.73-.24-.04-.61-.47-.63-1.24l.54-.4c.1-2.25.52-4.54-.82-6.11l-.93,1.37-.3-1.09.78-.07c-.44-1.03-.73-.12-1.04.5-.07-.58-.21-.98-.39-1.2l-.91,2.15c-.11-.88.41-1.74-.2-2.23-.43,1,.41,1.97-.3,2.62-.45-1.02-.32-1.85-.84-.98-.07-.58.04-.95.24-1.2-.47.69-1.23.29-1.47,1.49-.46-1.26-1.57.33-1.52-1.8-.15.51-.82,1.67-1.25,1.76.78-2.54-1.6-.15-1.39-2.88-.58,2.29-2.09,1.02-3.11,2.29.06-.18.17-.55.26-.43-.58-.19-.74-.88-1.11-1.31-.07,1.89-.97,2.32-1.45,3.49-.71-1.82.43-2.22.21-3.97.04,1.53-1.23,1.53-.99,2.8-.54-1.13-.47-.55-.74-2.11-.09,2.36-.5.4-.95,1.85-.78-1.16-.2-2.21-1.06-1.49-.41-.72.36-1.56.36-1.56ZM191.95,252.19v-.03c.18-.03.33-.06.42-.08-.09.02-.21.05-.42.1ZM190.23,252.21c.21.05.47.06.74.05.06.47,0,.95-.18.93.09-.31-.31-.58-.57-.98ZM193.86,261.61c-.27.19-.36-.07-.4-.35.13-.02.28-.07.47-.16,0-.05.02-.11.03-.17-.03.26-.06.5-.11.68Z"/>
        <path class="cls-1" d="M194.35,259.83s.06-.09.11-.1c-.06-.12-.11-.22-.16-.3-.03.14-.07.29-.1.42.05,0,.1-.01.15-.02Z"/>
        <path class="cls-1" d="M38.84,257.82l.04.03c-.03-.05-.06-.11-.08-.19.02.07.02.11.04.16Z"/>
        <polygon class="cls-1" points="166.54 249.62 166.55 249.96 166.7 249.66 166.54 249.62"/>
        <path class="cls-1" d="M29.39,253.17c-.02-.12-.05-.24-.12-.35,0,.09.06.21.12.35Z"/>
        <path class="cls-1" d="M25.31,252.86l-.58-.48c.25.27.43.41.58.48Z"/>
        <path class="cls-1" d="M22.17,252.19c-.04.24-.05.42-.06.58,0,0,0,0,0,.01l.06-.59Z"/>
        <path class="cls-1" d="M72.06,250.6s.08-.02.12-.06c.28-.26.09-.16-.12.06Z"/>
        <path class="cls-1" d="M57.21,253.76c.16-.25.31-.49.48-.64-.26-.1-.47-.13-.48.64Z"/>
        <path class="cls-1" d="M88.64,248.97s0,.01,0,.02c.04,0,.07,0,.1,0l-.1-.02Z"/>
        <path class="cls-1" d="M58.38,253.15c-.26-.27-.49-.21-.69-.02.22.09.47.23.69.02Z"/>
        <path class="cls-1" d="M8.57,251.58l-.15-.06c0,.09,0,.16-.02.22l.17-.16Z"/>
        <path class="cls-1" d="M8.4,251.74l-.17.16c.08,0,.14-.01.17-.16Z"/>
        <path class="cls-1" d="M7.88,252.24l.35-.34c-.12,0-.27-.05-.35.34Z"/>
        <path class="cls-1" d="M12.72,252.2l.05-.49c-.03.1-.04.26-.05.49Z"/>
        <path class="cls-1" d="M13.98,252.06c-.3-.11-.76-1.05-1.18-.74l-.04.39c.2-.73.93,1.18,1.21.35Z"/>
        <path class="cls-1" d="M19.25,258.14l-1.06-.39c.18.52.43,1.23-.05,1.35,1.33,1.56-.28-1.17,1.11-.96Z"/>
        <path class="cls-1" d="M22.53,258.9c-.57.24,0,.76-.02,1.06.36-.48.45-.6.02-1.06Z"/>
        <path class="cls-1" d="M46.24,258.9l-.06,1.23c.44-.18,0-.48.06-1.23Z"/>
        <polygon class="cls-1" points="50.77 252.52 50.34 251.76 50.14 252.89 50.77 252.52"/>
        <polygon class="cls-1" points="53.44 261.31 53.25 261.49 53.98 261.04 53.44 261.31"/>
        <path class="cls-1" d="M93.26,260.87l-.13-1.52c-.3.27-.36,1.98.13,1.52Z"/>
        <path class="cls-1" d="M110.44,259.33c.19.76.67,1.25.97.5-.39-.1-.77-.7-.97-.5Z"/>
        <polygon class="cls-1" points="161.99 261.8 161.64 262.31 162.29 261.89 161.99 261.8"/>
      </g>
    </g>
  </g>
</svg>