<?xml version="1.0" encoding="UTF-8"?>
<svg id="_レイヤー_2" data-name="レイヤー 2" xmlns="http://www.w3.org/2000/svg" viewBox="0 0 530.8 696.54">
  <defs>
    <style>
      .cls-1 {
        fill: #cecccc;
        stroke-width: 0px;
      }
    </style>
  </defs>
  <g id="_レイヤー_2-2" data-name="レイヤー 2">
    <g>
      <path class="cls-1" d="M526.74,246.18c-.81.22-.73.63.51.81l1.81.26-.21,1.34c-.08.49-.11,1.22-.07,2.17l1.2,2.26-.29-4.44-.17-2.59-2.27.15-.51.03Z"/>
      <path class="cls-1" d="M527.44,269.5c.58,3.74,1.6,8.06,2.7,5.64-1.15-3.71-.67-4.61-2.04-8.6-.14-3.19.38-5.56.82-5.02-.31-1.13.26-4.95-.49-6.66-.93,4.14-.96,9.4-.2,14.88-.26,1.18-.58.04-.8-.23Z"/>
      <path class="cls-1" d="M525.57,580.76l.14-2.01c-.08.55-.12,1.23-.14,2.01Z"/>
      <path class="cls-1" d="M445.02,689.05c1.47-.03,2.08-.15,2.16-.26-1.36.08-2.48.15-2.16.26Z"/>
      <path class="cls-1" d="M412.09,687.73c.71.03,1.3.05,1.94.08-.74-.11-1.48-.17-1.94-.08Z"/>
      <path class="cls-1" d="M525.57,580.76l-.38,5.15c.39.36.29-2.64.38-5.15Z"/>
      <path class="cls-1" d="M530.32,312.42c-.06-1.08-.17-1.98-.31-2.8.04.89.08,1.74.13,2.63.07.05.12.09.19.17Z"/>
      <path class="cls-1" d="M524.6,495.75v-1.57c-.14-.46-.3-.89-.49-1.3l.49,2.87Z"/>
      <path class="cls-1" d="M524.42,430.5c-.04,1.48.97,1.99,1.42,2.55-.42-.83-.62-1.92-.7-3.22-.19-.02-.42.17-.72.66Z"/>
      <path class="cls-1" d="M526.2,327.04l-.14-1.84c.04.48.1,1.28.14,1.84Z"/>
      <path class="cls-1" d="M524.38,542.45c-.15.11-.28.34-.36.59.13,0,.25-.23.36-.59Z"/>
      <path class="cls-1" d="M515.8,173.17c-.09-.02-.1.06-.17.07.24.32.35.41.17-.07Z"/>
      <path class="cls-1" d="M526.48,248.6l-.14-1.04c-.2-.1-.4-.2-.59-.19l.73,1.23Z"/>
      <path class="cls-1" d="M351.83,686.43c.12,0,.16.01.27.02,1.59-.12.69-.1-.27-.02Z"/>
      <path class="cls-1" d="M10.06,484.16c-.91,6.27-1.17-10.2-2.18-.76.4-.88,1.58,8.58,2.18.76Z"/>
      <path class="cls-1" d="M530.19,314.11c0,.88,0,1.78.01,2.67.03-1.22.03-2.04-.01-2.67Z"/>
      <path class="cls-1" d="M7.89,483.4h0l-.1.97c.04-.4.07-.63.1-.97Z"/>
      <path class="cls-1" d="M212.98,687.04c.28.18.84.31,1.42.44-.05-.1-.37-.23-1.42-.44Z"/>
      <path class="cls-1" d="M316.42,688.49l-2.56-.14c1.01.09,1.84.12,2.56.14Z"/>
      <path class="cls-1" d="M159.28,688.48c-1.39-.08-1.86-.22-3.76-.08.18.05.35.09.58.12.69-.14,1.6-.2,3.19-.04Z"/>
      <path class="cls-1" d="M103.38,688.48c.3.08.69.14,1.03.2.55-.02,1.2-.04,1.77-.05l-2.8-.15Z"/>
      <path class="cls-1" d="M408.96,41.18c.92.88,1.37,1.6,1.7,2.19-.35-1.08,6.75,3.33-1.7-2.19Z"/>
      <path class="cls-1" d="M529.75,312.45c.26.33.38.8.44,1.66-.02-.64-.04-1.26-.05-1.86-.15-.16-.29-.2-.38.2Z"/>
      <path class="cls-1" d="M157,696.5l-8.88-.15c2.48.1,5.71.15,8.88.15Z"/>
      <path class="cls-1" d="M48.01,115.16l1.08-1.77c-.47.64-.87,1.26-1.08,1.77Z"/>
      <path class="cls-1" d="M121.77,696.5c-1.59-.36-3.27-.57-5-.7-.37.08-.79.14-1.03.26l6.03.44Z"/>
      <path class="cls-1" d="M410.67,43.39s-.01-.02-.01-.02c0,0,0,0,.01.02Z"/>
      <path class="cls-1" d="M458.02,79.34c-6.13-6.1-3.81-1.93-5.65-2.67-3.78-3.46-4.43-4.49-4.45-4.97,0-.51.73-.54-.34-1.96-2.51-2.03-4.88-3.64-7.06-5.14-1.07-.77-2.17-1.43-3.19-2.13-1.02-.7-2-1.41-2.91-2.17-.14-.4-.8-1.05.21-.57-1.48-.87-3.18-2.1-5.03-3.51-1.91-1.33-3.95-2.84-6.04-4.37-1.04-.76-2.09-1.52-3.13-2.28-1.03-.76-2.14-1.4-3.18-2.06-2.1-1.29-4.12-2.43-5.92-3.26-.42-.43-.6-.69-.67-.85.69,1.27.47,1.95,0,2.21-.79-.53-1.58-1-2.34-1.43-.77-.39-1.5-.76-2.16-1.1-1.31-.68-2.3-1.31-2.68-2.05,1.98,1.24,2.33,1.05,3.42,1.39l-3.62-1.77c-2.42-2.96,4.89,2.49,5.4,1.7-3.46-1.87-7.25-3.81-10.83-5.62-3.64-1.7-7.02-3.36-9.56-4.96-.53-1.69,12.49,6.4,6,1.58l3.96,2.45c1.32.82,2.58,1.74,3.87,2.6-5.09-5.38,4.77,3.08.24-2.12-10.51-6.48-12.26-6.31-23.13-12.01-2.77-.59.39,1.31-2.38.73-8.22-2.86-10.99-5.03-13.42-6.64-1.2-.84-2.28-1.62-3.84-2.38-.78-.38-1.69-.75-2.79-1.12-1.1-.38-2.39-.76-3.99-1.04-1.71-.13-2.99.08-4.89-.13-.95-.1-2.05-.31-3.44-.72-.69-.2-1.46-.46-2.32-.77-.87-.28-1.83-.6-2.89-1l3.38-.51c-5.72-1.64-7.5-1.6-9.3-1.68-.9-.04-1.81-.11-3.23-.42-1.43-.25-3.38-.73-6.36-1.63,1.14-.03,3.44.37,5.25.7,1.81.3,3.08.71,2.24.37-7.6-2.91-5.75-.5-11.77-1.85l-1.01-1.48c-12.5-2.21-26.45-3.09-40.4-3.51.79-.35,3.21-.67-.05-1.13-2.21.02-4.46.02-6.74,0-2.27,0-4.57-.11-6.89,0-2.32.04-4.65.09-6.99.13l-3.51.04c-1.17.02-2.34.11-3.51.16-2.34.11-4.67.22-6.99.33-1.16.06-2.32.07-3.47.17-1.15.1-2.29.2-3.43.3-4.55.41-9.02.66-13.25,1.3l-6.25,2.15c-1.49.24-2.87,0-1.28-.47-6.6.98-.21.72-3.25,1.8-3.67.89-5.01.49-2.73-.35-5.66,1.62-13.63,4.19-21.59,6.88-1.98.7-3.97,1.4-5.94,2.06-.98.33-1.96.65-2.93.97-.95.35-1.9.69-2.82,1.03-3.7,1.37-7.2,2.46-10.16,3.38.69-.43,1.4-.81,2.12-1.19-1.15.36-2.14.78-3.02,1.2-.88.41-1.66.82-2.36,1.21-1.41.79-2.53,1.56-3.64,2.3-1.1.75-2.2,1.43-3.53,2.16-1.32.76-2.89,1.5-4.99,2.26l1.45-.92c-2.36,1.09-4.74,2.22-7.13,3.37-2.34,1.24-4.68,2.54-7.02,3.82-1.17.64-2.33,1.29-3.5,1.93-1.16.66-2.27,1.38-3.4,2.07-2.25,1.38-4.49,2.76-6.69,4.11-2.19,1.38-4.27,2.85-6.36,4.2-1.04.68-2.07,1.36-3.09,2.02-.51.33-1.02.66-1.52.98-.49.35-.98.69-1.46,1.03-1.93,1.36-3.82,2.65-5.65,3.86-.92.6-1.83,1.18-2.71,1.76-.87.59-1.72,1.16-2.55,1.72-.35.78-1.54,1.95-3.14,3.32-1.58,1.38-3.63,2.86-5.47,4.53-3.74,3.25-7.28,6.4-7.03,7.64-4.58,3.79-6.35,5.03-8.52,6.73-1.11.83-2.2,1.89-3.84,3.41-1.61,1.55-3.77,3.56-6.68,6.6-2.96,3.4-3.34,5.96-6.64,10.39l-.96-.59-3.65,6.69c-1.16.8-2.35,1.57-3.49,2.4l-2.74,4.44c1.24-1.67,2.92-3.33,3-2.88-1.05,1.74-2.32,3.59-3.65,5.39-1.32,1.8-2.72,3.54-3.88,5.15-2.38,3.17-4.36,5.45-4.65,5.39-1.63,2.77-2.98,5.7-4.45,8.55l-2.16,4.3c-.72,1.43-1.32,2.92-1.99,4.38-.1-.29.17-1.18.59-2.29.21-.55.44-1.17.71-1.79.27-.61.55-1.24.8-1.82-1.05,2.36-1.56,3.67-1.97,4.36-.4.7-.62.81-.84.91-.43.18-.83.27-2.49,4.71.8-1.02.29.9.4,1.19-1.43,1.91-3.06,5.4-4.87,9.24-1.87,3.82-3.4,8.22-4.73,11.95l-.16-1.69c-5.38,13.29-9.45,28.7-12.56,44.43.35-1.4.67-2.35.97-2.91.31-.56.56-.74.73-.6.32.27.38,1.82.03,4.13l-1.49,1.62c.17,3.11,1.32-4.72,1.07,1.54-1.21,5.83-2.05,3.72-1.8.27l-.46,3.61c-.16,1.2-.31,2.41-.39,3.62-.4.37-.37-1.35-.73-1.86.14,1.54-.56,4.61-1.23,7.87-.33,1.63-.66,3.3-.85,4.85-.15,1.55-.13,2.97.09,4.08l-.38.38c-.31,3.66-.57,6.86-.7,8.8l5.31-5c-.2,0-.39,0-.51,0l-5.37.06.06,5.25c.11,10.39.35,16.85.4,26.57,1.02.25.79,5.27,1.61,9.09-.32,9.43-1.12,19.9-1.04,31.26.51,7.99.86,2.33,1.47,5.92-.93.59-.84,11.94-1.5,6.05.15,13.64.18,17.42.94,34.67.38-1.87.54-3.98.86-2.89.15,3.13-.39,7.12-.83,6.67l-.1-.83c1.39,19.36-2.7,44.69-.77,60.1l-.1-.86,1.01,15.99c-.16,7.36-.7-4.41-1.27,1.03,1.54,17.25-.22,27.25.81,41.45-2.73,10.99.19,39.01-1.55,53.85l.64-.86c.63,3.83-.37,4.64-.52,7.47.5-.4.58-4.16.93-1.78.78,32.49-.94,67.06-1.52,100.37-.17,12.18,3.33,6.91,1.79,22.27l-1.19-4.36c.3,5.2.48,10.45.57,15.73.03,2.64.06,5.28.09,7.93,0,4.17.01,8.34.02,12.51,8.75,0,17.49.02,26.15.03,7.15-.04,14.22-.16,21.16-.51-1.43.28-1.48.63-3.82.63,5.08.87,18.8.04,18.88-.67,3.75.08.87.64,3.18,1,5.1.51,12.8-1.11,15.51-.24.46.14-1.43.28-2.37.35,3.32-.42,15.48.11,12.3-.89,9.03.48,17.28-.45,24.48.15,4.7-1.12,15.46.54,16.96-1.04-.65,1.64,15.84,1.32,21.55.55-1.91.49,4.97.51,2.73,1.2,6.52-.02,12.49-.33,11.35-1.17,12.01,1.96,24.14-1.58,30.9.93,19.36-.88,37.28-1.47,54.69-1.86-.63,1.63-19.25.16-18.5,1.88,16.52-.67,26.05-2.07,42.44-1.68,4.24.22-2.41.71-3.84.99,16.51-.67,31.92.15,46.6-.74-.04.15-1.63.32-3.12.44,2.9-.05,6.73.24,6.41-.5l-2.82.2c-4.62-1.08,11.5-2.25,12.01-2.82-4.91,2.13,14.51.53,6.7,3.22,1.91-.14,4.29-.49,3.86-.99,2.83.15,3.72.43.86,1,10.37-.4,6.68-1.19,16.08-1.18-.03.36-1.93.5-2.9.92,4.76-.7,9.54-1.4,17.47-1.1-.48.22.44.5-1.92.49,13.63-.11,23.24-1.86,38.2-1.19-4.41,1.56,5.09.51,5.88,1.86l8.04-.4-3.23-.66c7.05.02,13.27-.96,19.33-.52l-5.24.56,13.2-.26-7.47-.51c7.13-.7-.76-1.71,8.61-1.33-1.91.14,7.05.02,10.72.81h-.02c3.49-.43,7.07-.88,12.28-.54,1.35.43-1.09,1.49-.21,1.78,3.44-1.13,16.5-.31,20.85-1.52-1.45.28-1.53.99-1.05,1.14l2.89-.92c3.26.29,3.74.44,3.21,1,9.82.17-3.12-1.71,8.53-.97-.91.07-.48.21-2.38.35,3.6.12,7.13.11,10.6.05,4.03-.08,7.99-.16,11.91-.23-.02-1.37-.04-2.73-.05-4.08,0-1.3-.01-2.59-.02-3.88,0-2.08.04-4.16.12-6.22,1.36-3.17.33,9.39,1.48,5.76-.25-15.5-1.63-32.1-1.31-47.11l-.15,2.8c-1.92-2.08.95-11.17.04-18.76.14,1.86,1.07,2.44.85,1.93.31-10.28-.47-21.01-1.08-36.57l.49,1.93c.44-6.05.25-15.95.48-22.49-.49-1.94-.41-5.68-1.13-3.41,2.81-20.17-1.5-38.47.83-56.36,0,2.14.43,5.1.43,3.4l-.45-15.24c-.84,1.21-.51,2-1.16,5.2-.5-1.93-.88-6.23-.88-10.01.55,6.85,1.34-.06,1.81-3.02-.26.5-.54-.52-.8-.27,1.49-7.96-1.68-1.33-.68-12.2l.44.58c-.22-4.07-.8-7.82-.68-12.2.97-1.82.45,4.33,1.25,4.61-.06-6.16-1.83-12.16-.87-17.74.27,2.62.27,6.38.54,9,1.13-6.07.85-6.78,1.03-11.29l-.03.44.51-10.43-.31,2.66c-2.52-7.71-.46-15.7-2.11-26.09,1.56,10.1.9,1.67,2,2.44.3-2.65.64-6.68.95-5.54-.88-4.91.7-8.2-.6-15.12.35-.31.03-5.25.92-4.14-.28-6.38-.61,1.51-1.06.97-1.21-9.84,1.46-23.13-.19-37.28-.68-12.2-1.87-14.46-2.46-25.79.56-3.82,1.28,3.13,1.28,3.13.52-6.17.42-10.81.02-16.62.31,1.18.57-.04.96-1.81-.09-4.66-1.28-3.12-.76-9.27.39,1.06,1.02,2.41,1.42,4.66-.32-5.5-.98-10.92-1.3-16.61.61-1.51.93,3.43,1.33,5.44-.28-6.39-.56-16.57-1.53-18.54l-.35,4.1c-.05-2.33.84-1.2,1.01.52.76,5.48-.34,7.9-.69,8.21l-.23-4.05c-2.07,4.16.33,16.27.21,24.43l-1.5-3.4,1.25,8.37c-.39,1.78-1.23,3-1.46-1.03-.74,5.85.53,5.18-.29,10.2-.13.55-.2.3-.26-.21l.45,5.71c-.32-1.12-1.06.95-.84-2.56-.87,10.25,1.13,16.53-.01,20.4l-.09-.86c.51,14.23,1.11,1.38,2.4,12.05l-2.72,7.18,1.1,1.4c-.04,1.47-.12,4.37-.56,3.83.76,5.46.48-.93,1.19,2.24-1.01,7.06.47,19.48-1.29,21.07.84,2.54.65-6.76,1.23.79-1.89,2.15.32,8.72-.54,15.17-.98-1.98-.46-8.1-1.33-1.64,1.65,3.89-.36,12.57-.04,18.01,1.31.26.55,11.84.99,20.97-.44-.58-.72,17.19-1.2,25.69l-.22-.25c1.33,1.64,1.08,10.41,1.35,16.79-.8-.25-1.11-1.4-1.46-4.86v6c.43,1.42.66,3.29.81,7.18l-.99-1.51c.05,7.99,1.17,16.08.51,26.36.93.58,2.58-8.17,3.2,2.69-.5.4-1.36.8-1.56-2.04.06.93.42,3.32.2,5.2l-.84-4.34c-.37,4.68.7,2.45.63,6.19-.71-.07-.51,2.77-1.08,2.23-.07-.95.3-3.26.01-4.7-.13,4.22-.55,9.32-1.09,11,.41-.37.96,0,1.05,3.09.05,7.99-.86,2.73-1.23,7.39.5,1.93-.02,7.03,1.05,7.16,0,2.34-.5,2.77-.79,3.67.47,4.13.14,19.3,1.27,14.65l.07-1.06c.01.2.03.43.05.68v-.03.03c1.06,13.55-.6,28.14-.15,41.58l-.36-.02c.41,8.02.24,17.86,1.01,23.59,0,2.37-.65,5.6-1.08,4.59.27,6.13.67,6.82.08,15.68-.62-6.17-.55,2.13-.46-6.32-.31,7.97-.88,9.77.1,18.33-.91-2.91-1.15,6-.88,9.79l.66-5.58c.02,1.06.04,2.09.06,3.1,0,.98,0,1.94,0,2.89-.01,1.14-.05,2.22-.09,3.26h-.02s0-.02,0-.02c-.4-.78-.79-1.42-1.19-1.93-.05.2-.11.4-.16.58-.78-.12-1.36-.18-1.93-.18-.87.01-1.73.02-2.59.03-.9.03-1.79.06-2.67.09-3.52.16-6.91.43-10.18.66-6.54.47-12.64.76-18.59-.41-4.31.84,8.86.59,5,1.58-7.5-.16-15.32-1.89-17.67-1.89-10.28-.67-9.59,1.76-20.34,1.3,1.38.43,2.67,1.57-5.36,1.98-7.51-.16-9.23-1.8-4.49-2.14,1.8-.04,2.67.1,2.59.25,2.43-.16,5.61-.34,2.64-.81l-.97.43c-3.72-.44-14.05-.39-11.63-1.1-5.67.41-2.43.7,1.78.93-9.63-.62-15.04-.02-24.95-.44,1.58.24,3.03.74,1.46.74-14.54-.53-6.4.81-16.25,1-5.6-.65,2.01-1.56-7.91-1.01-6.05-.44-1.28-1.14,1.12-1.49-9.03.83-16.88-.54-22.04-.7l4.76-.35c-2.85.21-5.18.2-7.55.2l2.72.86c-2.79-.15-5.16-.15-5.11-.51-2.88.56,2.2,1.43-3.51,2.2-3.72-.44-11.34.47-12.63-.67,11.71.39-1.29-1.14,8.62-1.33-1.91.14-4.24.13-7.05-.02-.42-.13.4-.24,1.16-.3-11.21-1.02-5.15,1.29-16.77,1.26,1.48-.64-2.69-1.22-4.59-1.08,4.68.01,2.24,1.07-2.06,1.56-7.45-.5-8.1.37-12,.31l4.45.24c-1.51.64-5.23.56-10.43.76-.44-.5,4.72-.34,2.86-.56-5.77,1.13-13.03-1.17-21.07-.41-3.72-.44-.36-1.21-3.63-1.5-9.01.83-9.76-.88-19.23-.19,2.73.86,3.21.65-3.46,1.49l15.57-.61-9.99,1.25c4.7.01,9.91-.54,12.73-.4-4.76.7-4.27.49-2.02,1.21-6.43-1.29-12.75.75-20.18-.12l.23-2.14c-11.17-.95-19.85,1.1-34.36.56l4.66.37c-1.95.85-8.96.12-13.66.46.44-.71-2.5-.97-4.5-1.42.24.53-10.62-.05-11.94,1.38l-6.48-.94c-11.71-.39-13.37,2.03-24.63,1.79,3.39-.78-1.73-1.28,5.82-1.84-3.76,0-7.14-.14-7.2.36-2.2-.45-10.43.96-13.88.28-1.59.31-2.1,1.06-6.32,1-.46-.14.02-.35.02-.35-.02.35-6.61.48-2.92,1.27-11.58-2.23-32.37.16-42.45-1.75-8.21.24-18.09.47-25.54.52.48-.21.02-.36,1.43-.28-10.28-.66-6.32,2.05-18.01,1.31-5.97-1.15,6.21-.62,2.49-1.06-1.62-2.35-14.11.32-21.98-1.05l1.91-.14c-6.01-.8-14.68.89-24.5.72,0,0,.48-.21.06-.35-1.78.32-3.99.58-6.45.8-.61.05-1.24.1-1.89.16-.45.05-.92.09-1.38.14-.92.09-1.92.17-2.99.24-.06-.85-.12-1.71-.18-2.57l-.08-1.38c-.02-.6-.05-1.19-.07-1.78-.09-2.46-.17-4.85-.25-7.07.92,2.94.49,4.29,1.42,2.5-.13-4.24-1.5,1.24-1.76-7.22.5-2.75.94-8.85,1.94-9.66l.05,7.98c1.29-4.09-.04-10.33.18-14.53l.56.54c-.18-12.23-1.6-12.4-1.5-25.54l-.43,1.36c-1.41-7.18.79-6.02-.26-13.19l1.43-2.17c-.34-4.74-1.38-16.6-1.65-25.1,1.06,4.82,1.6,14.76,2.23,20.91.01-4.7-.11-15.96-.81-18.41.14,1.89.49,4.28.27,6.15-1.12-5.76-1.67-13.35-1.65-22.71,2.77,1.66.7-24.4,2.85-31.19-1.02-16.56.44-32.85.27-52.14-2.15,6.84-.06-5.63-2.27-4.45-.14-4.49-.1-6.21.04-6.61l1.32-13.62c.64-3.23.49,4.27.98,3.86.17-9.84.94-4.13,1.52-10.64-.79,1.33-1.13-3.42-.83-9.03l-1.02,7.9c-1.18-13.75,1.86-11.88.69-25.74l.7,4.38c-.41-7.11.01-26.23-1.76-33.21.26-1.26.86-2.92,1.02.21.27-17-1.89-37.83-.8-51.04l.54,1.29c-.16-3.17-1.02-5.52-.47-9.49.22.21.54,1.28.57-.19-.19-1.68-.95-8.42-.63-12.62l.61,3.59c.71-16.58-1.48-25.44-1.85-39.34,1.59.04,2.11-13.01,2.37-19.52l.23.23c.12-12.04-.42-21.82-1-31.84l-4.2,4.2.51-.03,4.06-.23.1-3.69c.08-2.88.16-5.78.25-8.77.06-1.5.06-3.02.2-4.56.14-1.54.29-3.11.44-4.72.83-2.65,1.43-6.29,2.45-10.43.47-2.08.93-4.3,1.4-6.62.12-.58.23-1.17.35-1.76.14-.59.29-1.18.44-1.77.29-1.19.59-2.4.89-3.62.61-2.44,1.15-4.95,1.84-7.43.73-2.47,1.46-4.94,2.18-7.37.37-1.21.72-2.42,1.1-3.6.43-1.17.85-2.32,1.26-3.45.84-2.26,1.66-4.43,2.48-6.46-.56,1.22-.82,1.01-.83.12,0-.44.05-1.06.16-1.75.14-.68.34-1.44.59-2.18,1.82-3.71,3.11-11.07,4.29-9.86-.21.44-.42.88-.6,1.34,1.25-1.16,2.7-3.67,4.13-6.67.73-1.49,1.42-3.12,2.17-4.72.79-1.58,1.58-3.15,2.32-4.63l-1.21-1.84c5.04-7.17,10.59-16.98,16.02-25.81,5.54-8.74,11.06-16.39,15.01-19.26,1.16-1.74,2.57-3.61,3.98-5.47.7-.93,1.41-1.86,2.09-2.77.71-.88,1.39-1.75,2.01-2.59l.61.85c2-2.08,3.75-3.9,5.4-5.61,1.68-1.69,3.33-3.21,4.99-4.85.83-.82,1.68-1.65,2.56-2.51.44-.44.89-.88,1.34-1.33.48-.44.96-.88,1.47-1.34,2-1.85,4.23-3.91,6.84-6.33l-1.67,2.5c2.96-2.71,4.5-4.79,5.91-6.96.71-1.07,1.41-2.14,2.29-3.24.88-1.11,1.94-2.25,3.44-3.35l2.73-.13c5.57-4.31,11.63-7.99,17.62-11.68,3.05-1.76,6.05-3.59,9.02-5.45,3.03-1.75,6.01-3.58,8.89-5.56-.1.31-.25.9-2.21,2.05,2.85-1.68,8.75-4.16,13.45-6.5,4.78-2.17,8.49-4.02,6.97-4.52.65,1.11,13.41-5.49,20.56-8.25l-.81,1.32c2.85-1.6,4.3-2.51,6.1-3.4,1.79-.91,3.99-1.61,8.29-2.99,2.1-.44,2.01.29-.79.78,6.97-1.38,5.12-2.38,13.67-3.74l-3,1.32c3.57-.75,5.2-1.18,6.41-1.63,1.21-.42,2.01-.81,3.94-1.53,2.24-.59,5.68-1.12,8.71-1.4,3.05-.14,5.67-.07,6.26.32.45-.34,1.65-.81,3.28-1.23.81-.21,1.74-.41,2.72-.57.99-.13,2.05-.19,3.13-.21.61.3-.94.63-1.72.79,12.21-.32,18.12-2.25,26.56-1.27.17.34.72.52,1.41.64-1.21-.03-2.39-.07-3.53-.1-1.14,0-2.24.04-3.28.06-2.08.04-3.95.07-5.48.1-3.07.05-4.85.06-4.48.02.06.9,7.85.9,1.71,2.32,3.1-.41,7.32-1.1,11.73-1.58,4.41-.29,9.02-.49,12.82-.13.36.12.72.23.99.39l-.79.05c1.75.22,3.32.25,4.81.2,2.41.33,3.94.55,6.26.74.83.8,8.83,1.48,12.68,1.97-.17-1.09,4.84-.06.24-1.67.61.15-.75.03-3.34-.24-.59-.04-1.28-.11-1.67-.1.08-.02.17-.04.28-.06-1.27-.14-2.74-.31-4.36-.49-.81-.09-1.66-.19-2.54-.3-.88-.1-1.8-.13-2.75-.21.78-.07,1.57-.14,2.38-.18.81,0,1.64.01,2.51.06,1.73.11,3.61.37,5.72.91,2.07-.39,4.38-.84,5.66-.9,2.55,1.16,6.33,2.36,9.61,3.41,3.28,1.1,6.03,2.22,6.64,2.77,5.89.89,12.65,2.73,18.94,4.23,3.11.87,6.1,1.67,8.81,2.27,2.73.55,5.07,1.19,7.01,1.38,3.28.98,3.47,1.9,4.54,2.63-1.9-.52-4.07-1.37-5.16-1.49,1.63.49,3.62,1.16,5.73,1.89,1.06.35,2.13.77,3.18,1.2,1.06.42,2.12.84,3.13,1.25,2.04.8,3.95,1.52,5.47,1.99,1.53.46,2.63.82,3.14.67,7.44,4.32-4.85-1.01,5.81,3.98l-1.61-.33c1.24.76,2.46,1.47,3.66,2.14,1.19.71,2.34,1.42,3.49,2.08,2.3,1.33,4.55,2.53,6.78,3.66,2.2,1.19,4.34,2.37,6.5,3.48,2.15,1.14,4.36,2.15,6.45,3.4,4.22,2.42,8.61,4.8,12.9,8.01,1.09.78,2.18,1.59,3.29,2.43,1.11.84,2.23,1.71,3.3,2.7,2.17,1.94,4.39,4.03,6.65,6.33-1.27-1.26-1.9-1.88-2.04-2.29,10.87,9.85,21.81,20.25,31.7,31.62,9.89,11.34,18.71,23.65,25.22,36.57,1.85,3.67,3.07,5.59,4.21,7.1.56.76,1.13,1.4,1.7,2.14.56.74,1.16,1.55,1.87,2.6l-.17,2.09,2.5,3.55,1.25,1.78c.41.6.78,1.21,1.17,1.82,1.45,2.69,2.57,5.31,3.54,7.93.51,1.3.89,2.64,1.27,3.99.38,1.34.75,2.69,1.14,4.07.38,1.37.78,2.76,1.22,4.18.46,1.41.81,2.91,1.3,4.42.47,1.52,1.01,3.08,1.63,4.71.61,1.63,1.37,3.29,2.07,5.09l.15-2.13c.7,2.68,2.01,6.87,3.01,10.31.54,1.71.84,3.27,1.03,4.34.18,1.07.19,1.66-.06,1.49.26.52,1.16,1.59,1.28,3.79l-.52.29,1.01,3.26c.34,1.09.59,2.19.88,3.29l1.71,6.61c.19,1.31.3,2.27.32,2.98,0,.71-.04,1.18-.12,1.48-.15.61-.43.6-.68.73-.5.27-.88,1.13.08,8.71.28,1.4.53,3.1.85,4.83.32,1.73.68,3.49,1.03,5,.7,3.03,1.33,5.11,1.43,4.03-.17-2.3-.15-5.91.41-6.13l.74,5.22c1.76.82,3.83,4.87,3.89-8.32-.32-1.5-.57-3.01-.94-4.5l-1.12-4.46.42-3.03,1.08,7.63c.18-4.42-.86-7.1-1.74-10.1.33-.79.49-2.12.29-3.93l-3.21-8.54c.45-1.2,2.02,3.71,1.27-2.3-1.69-3.94-.53,4.22-2.59-2.44-.25-4.41.65-3.33-1.16-8.16.26-.81.77.18,1.42,2.12-.39-1.08-.77-2.36-1.14-3.69-.43-1.32-.87-2.7-1.3-4-.85-2.62-1.67-4.95-2.43-5.95-.04-.58-.14-1.25-.29-1.97-.18-.71-.4-1.48-.64-2.27-.48-1.58-1.06-3.25-1.57-4.79-1.01-3.07-1.75-5.57-.96-5.62-.89-1.21-4.09-7.07-5.71-10.92,4.82,6.29-6.21-14.42-3.7-13.37-1.03-1.09-2.16-2.76-3.37-4.78-1.21-2.02-2.45-4.43-3.94-6.85-1.44-2.45-2.94-5.02-4.41-7.52-1.55-2.45-3.18-4.75-4.71-6.75.41.4,1.24,1.19,1.63,1.99-2.89-4.87-3.3-6.57-5.15-9.73-1.61.2-6.8-6.91-10.48-10.05-3.12-6.33,3.88,2.33,3.61-.18-.7.95-8.26-8.89-7.6-6.39-2.76-4.59-2.62-3.75-3.49-6.61-.97.22-1.82-.68-2.89-1.96-1.1-1.26-2.47-2.85-4.36-4.11-2.28-3.11-2.32-3.77-2.54-4.36-.23-.6-.62-1.18-3.83-3.95-2.48-3.22,3.33,1.65,3.33,1.65ZM278.03,1.52s0-.02,0-.02c1.72-.01,3.18.13,4.12.17-.86-.03-2.04-.17-4.12-.15ZM261.25,1.38c1.02-.01,2.17-.03,3.4-.04.61-.01,1.25-.03,1.9-.04.65.01,1.31.03,1.98.05.58.37-.05.71-1.74.65.91-.27-3.03-.38-5.54-.61ZM295.88,10.02c-2.58-.17-3.42-.48-3.75-.73,1.21.13,2.64.27,4.51.43.08-.03.24-.05.32-.09-.27.16-.57.31-1.07.38Z"/>
      <path class="cls-1" d="M300.67,9.27c.38.02.59,0,1.07.06-.52-.15-1.01-.29-1.51-.41-.33.07-.66.14-.95.2.47.05.95.11,1.39.15Z"/>
      <path class="cls-1" d="M525.74,578.41l-.02.35c.04-.29.08-.56.14-.74-.05.23-.08.23-.12.38Z"/>
      <path class="cls-1" d="M58.74,99.71l.22.14c.24-.43.47-.88.73-1.31-.33.38-.63.78-.95,1.17Z"/>
      <path class="cls-1" d="M529.22,486.92c.09-.17.18-.52.26-1.2-.07.05-.16.57-.26,1.2Z"/>
      <path class="cls-1" d="M529.45,447.4l.36-5.59c-.21,2.42-.3,4.18-.36,5.59Z"/>
      <path class="cls-1" d="M529.96,417.02c-.18-.38-.31-.49-.44-.59,0,.02,0,.04,0,.06l.44.53Z"/>
      <path class="cls-1" d="M318.51,695.29c-.41,0-.81.02-1.17.05-2.75.2-.88.12,1.17-.05Z"/>
      <path class="cls-1" d="M462.28,692.92c-1.53.18-3.03.37-4.62.48,2.56.08,4.55.1,4.62-.48Z"/>
      <path class="cls-1" d="M157.98,696.51s0,0,.02-.02h-.99l.97.02Z"/>
      <path class="cls-1" d="M450.97,693.38c2.56.2,4.7.16,6.68.02-2.1-.07-4.57-.17-6.68-.02Z"/>
      <path class="cls-1" d="M530.42,285.33l.04-1.46c-.07.02-.12-.06-.16-.17l.12,1.64Z"/>
      <path class="cls-1" d="M530.3,283.69l-.12-1.63c0,.75,0,1.39.12,1.63Z"/>
      <path class="cls-1" d="M529.92,278.64l.26,3.42c0-1.18.03-2.65-.26-3.42Z"/>
      <path class="cls-1" d="M529.95,325.55l.37.46c-.08-.25-.2-.41-.37-.46Z"/>
      <path class="cls-1" d="M530.05,337.78c.08-2.92.79-7.31.56-11.38l-.29-.38c.55,1.91-.88,8.99-.26,11.76Z"/>
      <path class="cls-1" d="M525.5,388.79l.29-10.24c-.39,1.79-.92,4.14-1.02-.51-1.17,12.91.88-2.66.72,10.76Z"/>
      <path class="cls-1" d="M524.93,420.55c-.18-5.5-.57.06-.79-.23.36,3.49.45,4.34.79.23Z"/>
      <path class="cls-1" d="M524.92,650.06l-.93-.55c.13,4.24.36.04.93.55Z"/>
      <path class="cls-1" d="M526.09,693.85l3.98.35.22-2.18c-.28-1.2-.57-2.31-.85-3.32l.16,5.03-3.51.11Z"/>
      <polygon class="cls-1" points="498.78 687.26 500.63 687.12 493.56 687.46 498.78 687.26"/>
      <path class="cls-1" d="M113.32,687.58l1.28,1.14c2.87-.2,3.47-1.48-1.28-1.14Z"/>
      <path class="cls-1" d="M8.5,632.44c.57-1.81.94-6.49.38-9.38-.08,3.74-.52,7.47-.38,9.38Z"/>
      <path class="cls-1" d="M41.93,141.47c-.42,1.02-.87,2.02-1.27,3.05.89-1.86,1.84-3.7,2.75-5.55l-1.49,2.5Z"/>
    </g>
  </g>
</svg>