<?xml version="1.0" encoding="UTF-8"?>
<svg id="_レイヤー_2" data-name="レイヤー 2" xmlns="http://www.w3.org/2000/svg" viewBox="0 0 506.45 665.93">
  <defs>
    <style>
      .cls-1 {
        fill: #cecccc;
        stroke-width: 0px;
      }
    </style>
  </defs>
  <g id="_レイヤー_2-2" data-name="レイヤー 2">
    <g>
      <path class="cls-1" d="M502.57,235.36c-.77.21-.7.6.48.77l1.73.25-.2,1.28c-.07.47-.11,1.17-.07,2.08l1.14,2.16-.27-4.24-.16-2.47-2.17.14-.48.03Z"/>
      <path class="cls-1" d="M503.24,257.64c.55,3.58,1.53,7.7,2.58,5.38-1.1-3.54-.64-4.4-1.95-8.21-.13-3.04.37-5.31.79-4.8-.29-1.08.25-4.73-.47-6.36-.88,3.96-.92,8.98-.19,14.21-.25,1.12-.55.03-.76-.22Z"/>
      <path class="cls-1" d="M501.46,554.97l.14-1.92c-.07.52-.12,1.18-.14,1.92Z"/>
      <path class="cls-1" d="M424.87,658.77c1.4-.03,1.99-.14,2.06-.24-1.3.07-2.37.15-2.06.24Z"/>
      <path class="cls-1" d="M393.42,657.51c.68.03,1.24.05,1.85.08-.71-.11-1.42-.16-1.85-.08Z"/>
      <path class="cls-1" d="M501.46,554.97l-.36,4.92c.37.34.28-2.52.36-4.92Z"/>
      <path class="cls-1" d="M506,298.64c-.06-1.03-.16-1.89-.3-2.67.04.85.08,1.66.12,2.51.06.05.12.08.18.16Z"/>
      <path class="cls-1" d="M500.53,473.75v-1.5c-.13-.44-.29-.85-.47-1.24l.47,2.74Z"/>
      <path class="cls-1" d="M500.35,411.43c-.04,1.41.93,1.9,1.35,2.44-.4-.8-.59-1.84-.67-3.07-.18-.02-.41.16-.69.63Z"/>
      <path class="cls-1" d="M502.06,312.61l-.13-1.75c.04.46.09,1.22.13,1.75Z"/>
      <path class="cls-1" d="M500.32,518.36c-.14.1-.27.33-.35.57.12,0,.24-.22.35-.57Z"/>
      <path class="cls-1" d="M492.17,165.61c-.08-.02-.1.06-.16.06.23.31.33.39.16-.06Z"/>
      <path class="cls-1" d="M502.32,237.67l-.14-.99c-.19-.09-.38-.19-.56-.18l.7,1.17Z"/>
      <path class="cls-1" d="M335.86,656.27c.11,0,.15.01.26.02,1.51-.11.66-.09-.26-.02Z"/>
      <path class="cls-1" d="M9.61,462.83c-.87,5.99-1.11-9.74-2.08-.73.38-.84,1.51,8.19,2.08.73Z"/>
      <path class="cls-1" d="M505.87,300.25c0,.84,0,1.7.01,2.55.03-1.16.03-1.95-.01-2.55Z"/>
      <path class="cls-1" d="M7.53,462.1h0l-.09.93c.04-.39.06-.6.1-.93Z"/>
      <path class="cls-1" d="M203.23,656.85c.27.17.8.3,1.35.42-.05-.1-.35-.22-1.35-.42Z"/>
      <path class="cls-1" d="M302.04,658.24l-2.44-.13c.97.09,1.76.12,2.44.13Z"/>
      <path class="cls-1" d="M151.93,658.22c-1.33-.07-1.78-.21-3.6-.08.17.05.34.08.55.12.66-.13,1.53-.19,3.04-.04Z"/>
      <path class="cls-1" d="M98.53,658.23c.28.07.66.13.99.2.53-.02,1.15-.04,1.69-.05l-2.68-.14Z"/>
      <path class="cls-1" d="M390.26,39.41c.88.84,1.3,1.53,1.62,2.1-.33-1.03,6.44,3.19-1.62-2.1Z"/>
      <path class="cls-1" d="M505.45,298.66c.25.31.37.77.42,1.59-.02-.61-.04-1.2-.05-1.78-.14-.16-.28-.19-.37.19Z"/>
      <path class="cls-1" d="M149.75,665.88l-8.48-.14c2.37.09,5.45.14,8.48.14Z"/>
      <path class="cls-1" d="M45.67,110.29l1.03-1.69c-.45.61-.83,1.21-1.03,1.69Z"/>
      <path class="cls-1" d="M116.09,665.88c-1.51-.34-3.12-.54-4.78-.67-.35.08-.75.14-.99.25l5.76.42Z"/>
      <path class="cls-1" d="M391.89,41.52s0-.02,0-.02c0,0,0,0,0,.02Z"/>
      <path class="cls-1" d="M437.08,75.92c-5.85-5.84-3.64-1.85-5.4-2.56-3.61-3.31-4.23-4.29-4.24-4.76,0-.48.7-.51-.32-1.87-2.4-1.94-4.66-3.48-6.74-4.91-1.03-.74-2.06-1.38-3.04-2.04-.98-.67-1.9-1.35-2.78-2.08-.13-.38-.77-1,.2-.54-1.41-.83-3.04-2.01-4.8-3.36-1.82-1.27-3.78-2.72-5.76-4.18-3.91-3-8.24-5.66-11.68-7.27-.4-.41-.57-.66-.64-.82.66,1.22.45,1.86,0,2.11-.76-.51-1.51-.96-2.23-1.37-.74-.38-1.43-.73-2.06-1.05-1.25-.66-2.2-1.25-2.56-1.96,1.89,1.19,2.23,1,3.26,1.33l-3.45-1.69c-2.31-2.83,4.67,2.38,5.15,1.63-3.31-1.79-6.92-3.64-10.34-5.38-3.48-1.63-6.71-3.22-9.13-4.75-.51-1.62,11.93,6.12,5.73,1.51l3.78,2.34c1.26.78,2.46,1.66,3.69,2.49-4.85-5.15,4.55,2.94.23-2.03-2.44-1.65-4.48-2.72-6.22-3.65-1.74-.92-3.22-1.65-4.7-2.38-.74-.36-1.48-.72-2.25-1.1-.78-.36-1.6-.73-2.5-1.14-1.78-.84-3.83-1.85-6.42-3.22-2.65-.57.37,1.25-2.27.69-7.85-2.74-10.49-4.81-12.82-6.35-1.15-.8-2.17-1.55-3.67-2.27-.75-.36-1.61-.72-2.66-1.08-1.05-.36-2.28-.73-3.81-.99-1.64-.12-2.86.08-4.67-.13-.91-.1-1.96-.3-3.29-.69-.66-.19-1.4-.44-2.21-.74-.83-.27-1.74-.58-2.76-.96l3.23-.49c-5.47-1.57-7.16-1.54-8.88-1.61-.86-.04-1.73-.1-3.08-.41-1.37-.24-3.23-.7-6.08-1.56,1.09-.03,3.29.35,5.01.67,1.73.29,2.95.68,2.14.36-7.26-2.78-5.49-.48-11.24-1.78l-.96-1.42c-11.94-2.11-25.27-2.96-38.6-3.35.75-.33,3.06-.64-.05-1.08-2.11.02-4.26.02-6.43,0-2.17,0-4.37-.11-6.58,0-2.21.04-4.44.08-6.67.12l-3.35.03c-1.12.03-2.23.11-3.35.16-2.23.11-4.46.21-6.68.31-1.11.06-2.22.07-3.31.17-1.1.1-2.19.19-3.27.29-4.34.39-8.61.64-12.66,1.25l-5.97,2.06c-1.43.23-2.73.02-1.23-.45-6.3.95-.2.69-3.1,1.73-3.5.85-4.78.47-2.61-.33-5.41,1.55-13.02,4.01-20.62,6.6-1.89.67-3.8,1.34-5.67,1.97-.94.31-1.87.62-2.79.93-.91.34-1.81.67-2.69,1-3.53,1.31-6.88,2.35-9.7,3.24.66-.41,1.33-.79,2.02-1.14-4.34,1.54-6.49,3.13-8.61,4.51-1.05.72-2.11,1.36-3.37,2.07-1.26.72-2.76,1.44-4.77,2.16l1.38-.88c-2.25,1.05-4.53,2.13-6.81,3.23-2.22,1.22-4.46,2.44-6.69,3.66-1.11.62-2.23,1.23-3.34,1.85-1.09.65-2.16,1.33-3.24,1.98-2.15,1.32-4.29,2.64-6.39,3.93-2.08,1.33-4.07,2.73-6.06,4.03-1.97,1.33-3.97,2.53-5.78,3.87-1.84,1.3-3.65,2.53-5.4,3.69-.88.57-1.75,1.13-2.59,1.68-.83.57-1.64,1.12-2.43,1.65-.33.74-1.47,1.87-2.99,3.17-1.51,1.32-3.46,2.75-5.21,4.34-3.56,3.11-6.96,6.12-6.7,7.31-4.38,3.62-6.06,4.81-8.13,6.44-1.05.8-2.09,1.81-3.66,3.27-1.53,1.49-3.61,3.4-6.37,6.32-2.82,3.25-3.19,5.69-6.32,9.94l-.91-.56-3.48,6.39c-1.1.77-2.25,1.5-3.32,2.31l-2.61,4.25c1.18-1.59,2.79-3.18,2.87-2.76-1.01,1.66-2.22,3.43-3.48,5.16-.63.86-1.27,1.71-1.91,2.53-.64.82-1.2,1.65-1.78,2.4-2.27,3.03-4.16,5.21-4.44,5.15l-1.12,2.01c-.36.68-.69,1.37-1.04,2.05l-2.06,4.12-2.06,4.11c-.67,1.38-1.26,2.8-1.89,4.19-.1-.28.17-1.12.56-2.19.2-.53.43-1.12.66-1.71.26-.59.52-1.18.76-1.74-1,2.25-1.47,3.52-1.87,4.17-.38.67-.6.78-.8.87-.41.17-.79.26-2.38,4.5.76-.97.28.86.38,1.14-2.55,3.74-6.77,13.07-9.13,20.26l-.16-1.61c-5.12,12.7-8.98,27.42-11.94,42.45.33-1.34.65-2.24.92-2.78.3-.53.54-.7.7-.57.3.26.38,1.74.04,3.94l-1.43,1.55c.16,2.97,1.26-4.51,1.03,1.47-1.15,5.57-1.95,3.56-1.72.26l-.44,3.45c-.16,1.15-.29,2.3-.36,3.46-.39.35-.35-1.29-.71-1.78.15,1.47-.53,4.4-1.16,7.52-.32,1.56-.63,3.16-.81,4.63-.13,1.48-.12,2.84.09,3.89l-.37.36c-.29,3.43-.53,6.44-.66,8.26l5.07-4.78c-.19,0-.37,0-.48,0l-5.13.06.05,5.02c.11,10.01.34,16.19.38,25.53.97.24.76,5.03,1.54,8.69-.31,9.01-1.07,19.01-.99,29.86.48,7.63.82,2.23,1.4,5.66-.88.56-.8,11.4-1.44,5.78.14,13.03.18,16.64.89,33.12.36-1.79.52-3.8.82-2.76.15,2.99-.37,6.8-.8,6.37l-.09-.79c1.33,18.49-2.58,42.69-.74,57.41l-.09-.83.96,15.27c-.15,7.03-.67-4.21-1.21.99,1.48,16.47-.21,26.03.77,39.6-2.61,10.5.18,37.27-1.48,51.44l.61-.82c.6,3.66-.35,4.43-.49,7.13.48-.38.55-3.97.89-1.7.74,31.04-.9,64.06-1.45,95.87-.16,11.64,3.18,6.6,1.71,21.27l-1.14-4.16c.29,5,.46,10.06.55,15.13.03,2.54.06,5.08.09,7.63,0,4,0,8.01.01,12.01,8.32,0,16.64.02,24.87.02,6.79-.04,13.51-.16,20.11-.49-1.37.26-1.41.61-3.65.6,4.86.83,17.96.04,18.04-.64,3.58.08.83.61,3.04.96,4.87.49,12.23-1.06,14.81-.23.44.13-1.37.27-2.26.33,3.17-.4,14.79.1,11.75-.85,8.63.46,16.51-.43,23.39.14,4.49-1.07,14.77.52,16.2-1-.62,1.56,15.13,1.26,20.58.53-1.83.47,4.74.49,2.6,1.14,6.23-.02,11.93-.31,10.85-1.11,11.47,1.87,23.06-1.5,29.51.89,18.49-.84,35.61-1.41,52.25-1.77-.6,1.56-18.39.16-17.68,1.79,15.78-.64,24.89-1.98,40.54-1.6,4.05.21-2.3.68-3.67.94,15.77-.64,30.49.14,44.52-.71-.04.15-1.55.3-2.98.42,2.77-.05,6.43.23,6.12-.48l-2.7.19c-4.42-1.03,10.98-2.15,11.48-2.69-4.69,2.03,13.86.51,6.4,3.08,1.82-.13,4.1-.47,3.69-.94,2.7.14,3.56.42.82.95,9.9-.39,6.39-1.14,15.36-1.12-.03.34-1.84.48-2.77.88,4.54-.67,9.11-1.34,16.69-1.05-.46.21.42.48-1.84.47,13.02-.1,22.2-1.78,36.49-1.13-4.21,1.49,4.86.49,5.62,1.78l7.68-.38-3.08-.63c6.73.02,12.68-.92,18.46-.49l-5,.53,12.61-.24-7.14-.49c6.81-.66-.73-1.63,8.23-1.27-1.82.13,6.73.02,10.24.78h-.02c3.33-.41,6.75-.84,11.73-.52,1.29.41-1.04,1.43-.2,1.7,3.28-1.08,15.76-.3,19.92-1.45-1.39.27-1.46.95-1,1.08l2.76-.88c3.12.28,3.57.42,3.07.96,9.38.16-2.98-1.64,8.15-.93-.87.07-.46.2-2.28.33,3.38.11,6.68.1,9.94.05,3.79-.07,7.52-.15,11.2-.22-.02-1.35-.04-2.69-.06-4.02,0-1.26-.01-2.52-.02-3.77,0-2.05.03-4.09.12-6.12,1.3-3.03.32,8.97,1.41,5.51-.24-14.81-1.56-30.67-1.25-45l-.14,2.67c-1.83-1.99.9-10.67.04-17.92.14,1.77,1.02,2.33.81,1.85.29-9.82-.45-20.07-1.03-34.94l.47,1.84c.42-5.78.24-15.23.46-21.48-.47-1.85-.39-5.43-1.08-3.26,2.68-19.26-1.44-36.75.8-53.84,0,2.04.41,4.87.41,3.25l-.43-14.56c-.8,1.15-.48,1.91-1.1,4.97-.47-1.84-.84-5.95-.84-9.56.53,6.55,1.28-.06,1.73-2.88-.24.47-.51-.49-.76-.26,1.42-7.61-1.61-1.27-.65-11.66l.42.55c-.21-3.89-.77-7.47-.65-11.66.92-1.74.43,4.14,1.19,4.4-.05-5.89-1.75-11.61-.83-16.94.26,2.5.26,6.1.52,8.6,1.08-5.8.81-6.47.98-10.78l-.02.42.49-9.97-.29,2.54c-2.41-7.37-.44-15-2.02-24.92,1.49,9.64.86,1.59,1.91,2.33.29-2.53.62-6.39.91-5.29-.84-4.69.66-7.83-.57-14.45.34-.3.03-5.02.88-3.96-.26-6.1-.59,1.44-1.01.93-1.15-9.4,1.4-22.09-.18-35.61-.65-11.66-1.79-13.81-2.35-24.63.54-3.65,1.23,2.99,1.23,2.99.5-5.89.4-10.32.02-15.87.29,1.12.54-.03.92-1.73-.09-4.45-1.23-2.98-.73-8.85.38,1.01.98,2.3,1.35,4.45-.31-5.25-.94-10.43-1.24-15.87.59-1.44.89,3.28,1.27,5.2-.26-6.11-.53-15.82-1.46-17.71l-.33,3.92c-.05-2.23.8-1.14.97.5.73,5.23-.32,7.55-.66,7.84l-.22-3.87c-1.98,3.97.32,15.54.2,23.33l-1.44-3.25,1.19,7.99c-.37,1.7-1.18,2.86-1.39-.99-.71,5.58.51,4.94-.28,9.74-.12.53-.19.29-.25-.2l.43,5.46c-.3-1.07-1.01.91-.81-2.44-.83,9.79,1.08,15.79-.01,19.48l-.09-.82c.49,13.59,1.06,1.31,2.29,11.51l-2.6,6.86,1.05,1.34c-.04,1.4-.12,4.18-.54,3.66.72,5.22.46-.89,1.14,2.14-.96,6.75.45,18.61-1.23,20.13.8,2.42.62-6.45,1.18.75-1.81,2.05.31,8.33-.52,14.49-.93-1.89-.44-7.73-1.27-1.56,1.58,3.72-.34,12-.04,17.2,1.25.24.52,11.31.94,20.03-.42-.55-.69,16.42-1.14,24.54l-.21-.24c1.27,1.57,1.03,9.95,1.29,16.04-.76-.24-1.06-1.34-1.4-4.64v5.73c.41,1.35.63,3.14.77,6.86l-.95-1.44c.05,7.63,1.12,15.36.48,25.18.88.55,2.46-7.81,3.05,2.57-.48.39-1.3.77-1.49-1.95.06.89.4,3.17.19,4.96l-.8-4.15c-.35,4.47.67,2.34.6,5.91-.68-.07-.49,2.65-1.03,2.13-.07-.91.28-3.12.01-4.49-.12,4.03-.53,8.9-1.04,10.51.39-.35.92,0,1.01,2.95.05,7.63-.82,2.61-1.17,7.06.47,1.85-.02,6.71,1,6.84,0,2.23-.48,2.65-.76,3.51.45,3.95.13,18.44,1.21,13.99l.07-1.01c.01.19.03.41.04.65v-.03.03c1.01,12.94-.58,26.88-.14,39.72l-.34-.02c.39,7.66.23,17.06.96,22.53,0,2.27-.62,5.35-1.03,4.38.26,5.86.64,6.52.08,14.98-.6-5.89-.53,2.03-.44-6.04-.29,7.61-.84,9.34.09,17.51-.87-2.78-1.1,5.73-.84,9.35l.63-5.33c.06,2.03.08,3.94.06,5.79-.01.57-.02,1.13-.03,1.68l-.05,1.53c-.38-.73-.77-1.33-1.15-1.8-.07.25-.13.47-.17.67-.72-.11-1.26-.15-1.8-.15-.81.01-1.61.02-2.4.04-.85.03-1.69.06-2.53.09-3.33.15-6.53.41-9.62.63-6.19.44-11.97.71-17.6-.4-4.12.8,8.46.57,4.78,1.51-7.17-.16-14.63-1.8-16.88-1.81-9.82-.64-9.16,1.68-19.43,1.24,1.31.41,2.55,1.5-5.12,1.89-7.17-.15-8.81-1.72-4.29-2.05,1.72-.03,2.55.1,2.48.23,2.32-.15,5.36-.32,2.52-.77l-.93.41c-3.56-.42-13.42-.37-11.11-1.05-5.42.39-2.32.67,1.7.89-9.2-.59-14.37-.02-23.84-.42,1.51.23,2.89.71,1.39.7-13.89-.51-6.11.78-15.52.96-5.35-.62,1.92-1.49-7.56-.97-5.78-.42-1.22-1.09,1.07-1.42-8.63.79-16.12-.52-21.05-.66l4.55-.33c-2.72.2-4.94.19-7.21.19l2.6.82c-2.67-.14-4.93-.15-4.88-.49-2.75.54,2.1,1.36-3.35,2.1-3.56-.42-10.83.45-12.06-.64,11.19.37-1.24-1.09,8.23-1.27-1.83.13-4.05.12-6.73-.02-.4-.12.38-.23,1.11-.29-10.71-.97-4.92,1.23-16.02,1.21,1.41-.61-2.57-1.16-4.38-1.03,4.47.01,2.14,1.02-1.96,1.49-7.12-.48-7.73.36-11.46.3l4.25.22c-1.44.61-5,.53-9.96.73-.42-.48,4.5-.33,2.73-.54-5.51,1.08-12.44-1.12-20.12-.39-3.56-.42-.34-1.15-3.47-1.43-8.61.8-9.32-.84-18.37-.18,2.61.82,3.06.62-3.31,1.43l14.87-.58-9.54,1.2c4.49.01,9.47-.52,12.16-.38-4.55.67-4.08.47-1.93,1.15-6.14-1.24-12.18.72-19.27-.11l.22-2.04c-10.67-.91-18.96,1.05-32.82.53l4.45.36c-1.86.81-8.56.11-13.04.44.42-.68-2.39-.93-4.3-1.35.23.51-10.14-.05-11.4,1.32l-6.19-.9c-11.19-.37-12.77,1.94-23.53,1.71,3.24-.74-1.65-1.22,5.56-1.75-3.59,0-6.82-.13-6.88.34-2.1-.43-9.96.92-13.26.27-1.51.3-2.01,1.01-6.04.96-.44-.14.02-.34.02-.34-.02.34-6.31.46-2.79,1.21-11.06-2.13-30.92.15-40.55-1.67-7.84.23-17.28.45-24.4.5.46-.2.02-.34,1.37-.27-9.82-.63-6.03,1.96-17.2,1.25-5.71-1.1,5.93-.6,2.37-1.01-1.55-2.24-13.48.31-21-1l1.82-.13c-5.74-.76-14.02.85-23.4.69,0,0,.46-.2.05-.34-1.68.3-3.75.55-6.06.75-.58.05-1.17.1-1.77.15-.41.04-.84.09-1.27.13-.86.09-1.8.16-2.8.23-.06-.82-.12-1.65-.18-2.49l-.08-1.33c-.02-.59-.05-1.17-.07-1.75-.09-2.39-.17-4.71-.25-6.87.88,2.81.46,4.1,1.36,2.39-.13-4.05-1.43,1.19-1.68-6.89.48-2.63.9-8.46,1.85-9.23l.05,7.62c1.23-3.9-.04-9.87.17-13.88l.54.51c-.17-11.68-1.53-11.84-1.43-24.4l-.41,1.3c-1.34-6.86.76-5.75-.24-12.6l1.36-2.07c-.33-4.53-1.32-15.86-1.57-23.97,1.01,4.6,1.53,14.1,2.13,19.98.01-4.49-.1-15.25-.77-17.59.13,1.81.47,4.09.26,5.87-1.07-5.51-1.6-12.75-1.58-21.69,2.64,1.58.67-23.31,2.72-29.79-.98-15.82.42-31.38.26-49.81-2.06,6.54-.06-5.38-2.17-4.25-.13-4.29-.1-5.93.04-6.31l1.26-13.01c.61-3.08.47,4.08.94,3.69.16-9.4.89-3.94,1.46-10.16-.76,1.27-1.08-3.27-.79-8.62l-.97,7.54c-1.12-13.13,1.77-11.35.66-24.59l.66,4.19c-.39-6.79.01-25.06-1.68-31.72.24-1.2.82-2.79.97.2.25-16.23-1.81-36.14-.76-48.76l.52,1.23c-.15-3.03-.97-5.27-.45-9.06.21.2.52,1.22.55-.18-.18-1.6-.9-8.05-.6-12.06l.58,3.43c.68-15.84-1.42-24.3-1.77-37.58,1.52.03,2.01-12.43,2.26-18.65l.22.22c.12-11.56-.41-20.94-.96-30.56l-4.01,4.01.48-.03,3.87-.22.1-3.51c.08-2.72.15-5.47.23-8.31.06-1.42.07-2.86.18-4.32.14-1.46.28-2.95.42-4.47.38-1.27.75-2.77,1.11-4.45.19-.84.34-1.73.55-2.65.21-.92.44-1.88.67-2.87.9-3.97,1.7-8.51,2.93-13.16.58-2.33,1.11-4.73,1.75-7.1.7-2.36,1.4-4.72,2.08-7.04.35-1.16.7-2.31,1.04-3.45.41-1.12.81-2.22,1.2-3.3.8-2.16,1.59-4.23,2.36-6.17-.54,1.16-.78.97-.79.12,0-.42.05-1.01.16-1.68.12-.66.32-1.38.55-2.09,1.73-3.54,2.96-10.57,4.08-9.43-.21.42-.39.85-.56,1.29,1.17-1.12,2.57-3.52,3.93-6.38.69-1.43,1.37-2.98,2.06-4.51.75-1.51,1.51-3.01,2.21-4.42l-1.16-1.75c4.8-6.86,10.1-16.23,15.26-24.68,5.28-8.36,10.55-15.67,14.3-18.42,1.1-1.67,2.45-3.45,3.79-5.23.67-.89,1.34-1.79,1.99-2.66.68-.84,1.33-1.67,1.91-2.48l.58.81c1.91-1.99,3.58-3.72,5.16-5.37,1.58-1.63,3.18-3.08,4.76-4.65.79-.78,1.6-1.58,2.44-2.4.84-.83,1.7-1.71,2.67-2.57,1.91-1.77,4.03-3.74,6.53-6.05l-1.59,2.38c2.82-2.59,4.28-4.6,5.63-6.66.68-1.03,1.35-2.05,2.19-3.1.84-1.05,1.84-2.16,3.28-3.21l2.6-.13c5.31-4.12,11.1-7.65,16.81-11.19,2.91-1.69,5.78-3.43,8.61-5.22,2.9-1.67,5.73-3.43,8.49-5.32-.09.29-.24.86-2.11,1.96,2.72-1.6,8.35-4,12.84-6.23,4.56-2.1,8.11-3.85,6.65-4.33.62,1.06,12.81-5.26,19.63-7.91l-.77,1.26c5.45-3.04,5.51-3.58,13.74-6.12,2-.42,1.92.27-.75.75,3.34-.64,4.54-1.25,5.96-1.81,1.41-.55,3.01-1.13,7.09-1.78l-2.86,1.27c3.41-.72,4.97-1.13,6.12-1.56,1.16-.42,1.92-.78,3.76-1.47,2.14-.56,5.43-1.07,8.32-1.35,2.91-.14,5.42-.07,5.98.3.43-.32,1.58-.77,3.14-1.18.78-.2,1.66-.39,2.6-.55.95-.13,1.96-.19,2.99-.2.58.29-.9.6-1.64.75,11.66-.3,17.31-2.16,25.37-1.22.16.32.69.5,1.35.61-1.16-.03-2.29-.06-3.38-.09-1.09.02-2.14.04-3.13.06-1.99.04-3.77.07-5.24.1-2.94.04-4.63.06-4.28.03.05.86,7.5.85,1.63,2.21,2.96-.4,6.99-1.05,11.21-1.52,4.21-.28,8.62-.46,12.25-.13.35.11.69.22.94.38l-.76.04c1.67.21,3.17.24,4.59.19,2.3.32,3.76.53,5.98.71.79.76,8.43,1.41,12.11,1.88-.16-1.04,4.63-.06.23-1.6.58.14-.72.03-3.19-.23-.56-.04-1.22-.11-1.59-.09.07-.02.17-.03.26-.05-1.22-.14-2.62-.3-4.17-.47-.77-.09-1.58-.18-2.43-.28-.84-.1-1.72-.13-2.63-.2.75-.07,1.5-.13,2.28-.18.77,0,1.57.01,2.4.06,1.66.1,3.45.36,5.46.87,1.98-.37,4.19-.81,5.41-.86,2.43,1.11,6.04,2.26,9.18,3.26,3.13,1.05,5.76,2.12,6.34,2.65,5.63.85,12.08,2.61,18.09,4.05,2.97.84,5.83,1.6,8.42,2.18,2.6.53,4.84,1.14,6.69,1.32,3.13.94,3.31,1.81,4.34,2.51-1.82-.49-3.89-1.31-4.93-1.42,1.55.46,3.46,1.11,5.47,1.81,1.01.33,2.03.74,3.04,1.15,1.01.4,2.02.81,2.99,1.2,1.95.77,3.77,1.45,5.22,1.91,1.46.44,2.51.78,3,.65,7.11,4.14-4.63-.97,5.55,3.8l-1.54-.32c1.18.72,2.34,1.4,3.49,2.05,1.13.68,2.23,1.36,3.33,1.99,2.19,1.27,4.34,2.42,6.48,3.5,2.1,1.14,4.14,2.27,6.21,3.33,2.05,1.09,4.16,2.06,6.15,3.26,4.03,2.32,8.22,4.59,12.31,7.66,1.04.75,2.08,1.52,3.14,2.33,1.06.8,2.13,1.64,3.15,2.58,2.08,1.85,4.19,3.86,6.35,6.05-1.21-1.2-1.82-1.8-1.95-2.19,10.37,9.42,20.81,19.37,30.24,30.25,9.43,10.84,17.84,22.61,24.05,34.96,1.76,3.51,2.93,5.34,4.01,6.79,1.11,1.43,2.06,2.53,3.41,4.53l-.16,1.99,2.38,3.39,1.19,1.7c.39.57.74,1.16,1.12,1.74,1.39,2.57,2.45,5.08,3.38,7.58.49,1.24.84,2.53,1.2,3.81.36,1.28.72,2.57,1.08,3.89.37,1.31.75,2.64,1.17,4,.44,1.35.77,2.78,1.24,4.23.45,1.45.96,2.95,1.55,4.5.59,1.55,1.31,3.15,1.98,4.87l.15-2.03c.67,2.56,1.91,6.57,2.87,9.85.51,1.63.79,3.13.98,4.15.17,1.02.18,1.59-.06,1.42.25.49,1.11,1.52,1.22,3.62l-.5.28.97,3.11c.32,1.04.56,2.09.84,3.14l1.64,6.31c.18,1.25.28,2.17.31,2.85,0,.68-.04,1.12-.11,1.42-.15.58-.41.57-.65.7-.48.26-.84,1.08.08,8.32.24,1.34.52,2.96.81,4.61.31,1.65.65,3.33.98,4.78.67,2.9,1.27,4.88,1.37,3.85-.16-2.2-.14-5.65.39-5.86l.71,4.98c1.68.78,3.66,4.65,3.72-7.95-.3-1.44-.54-2.88-.89-4.3l-1.07-4.26.4-2.89,1.03,7.29c.18-4.22-.82-6.78-1.66-9.64.31-.76.47-2.02.28-3.75l-3.06-8.16c.43-1.15,1.92,3.55,1.22-2.2-1.61-3.76-.51,4.03-2.47-2.33-.23-4.21.62-3.18-1.1-7.8.24-.77.74.17,1.36,2.03-.37-1.04-.73-2.25-1.09-3.53-.41-1.26-.83-2.58-1.24-3.83-.81-2.5-1.6-4.73-2.31-5.69-.04-.56-.14-1.19-.27-1.88-.17-.68-.38-1.41-.61-2.17-.46-1.51-1.01-3.11-1.5-4.57-.97-2.93-1.67-5.32-.91-5.37-.85-1.16-3.91-6.75-5.44-10.44,4.59,6.02-5.92-13.78-3.53-12.78-.98-1.04-2.06-2.63-3.22-4.57-1.16-1.93-2.33-4.23-3.75-6.55-1.37-2.34-2.81-4.8-4.21-7.18-1.47-2.34-3.04-4.54-4.49-6.46.39.38,1.18,1.14,1.56,1.9-2.76-4.65-3.14-6.28-4.91-9.3-1.54.19-6.48-6.61-10-9.61-2.98-6.05,3.7,2.23,3.45-.17-.67.91-7.88-8.51-7.25-6.11-2.63-4.39-2.5-3.59-3.32-6.32-.93.21-1.74-.65-2.76-1.88-1.04-1.21-2.36-2.73-4.15-3.93-2.17-2.98-2.21-3.6-2.43-4.17-.22-.57-.58-1.13-3.66-3.78-2.37-3.08,3.18,1.58,3.18,1.58ZM265.22,1.45s0-.02,0-.02c1.64-.01,3.04.11,3.93.16-.82-.03-1.95-.16-3.94-.14ZM249.19,1.32c.98-.01,2.07-.03,3.24-.04.59-.01,1.19-.03,1.81-.04.62.01,1.25.03,1.9.04.56.35-.05.68-1.66.62.87-.26-2.89-.35-5.29-.58ZM282.27,9.57c-2.47-.16-3.27-.45-3.58-.69,1.16.13,2.52.26,4.3.41.08-.03.23-.05.3-.08-.26.16-.54.3-1.03.37Z"/>
      <path class="cls-1" d="M286.84,8.85c.36.02.56,0,1.03.05-.49-.15-.96-.28-1.44-.4-.31.07-.63.14-.91.19.45.05.91.1,1.33.15Z"/>
      <path class="cls-1" d="M501.61,552.71l-.02.34c.04-.28.08-.53.14-.7-.05.22-.08.22-.12.37Z"/>
      <polygon class="cls-1" points="55.9 95.52 56.11 95.65 56.8 94.39 55.9 95.52"/>
      <path class="cls-1" d="M504.95,465.33c.09-.17.17-.49.25-1.15-.06.05-.15.55-.25,1.15Z"/>
      <path class="cls-1" d="M505.16,427.58l.35-5.34c-.2,2.31-.29,3.99-.35,5.34Z"/>
      <path class="cls-1" d="M505.65,398.55c-.17-.37-.3-.47-.42-.57,0,.02,0,.04,0,.06l.42.51Z"/>
      <path class="cls-1" d="M304.04,664.73c-.39,0-.78.02-1.12.04-2.63.19-.84.11,1.12-.04Z"/>
      <path class="cls-1" d="M441.37,662.46c-1.46.18-2.89.35-4.42.46,2.44.07,4.34.09,4.42-.46Z"/>
      <path class="cls-1" d="M150.69,665.9s0,0,.02-.02h-.95l.93.02Z"/>
      <path class="cls-1" d="M430.56,662.91c2.44.19,4.49.15,6.39.02-2-.06-4.36-.16-6.39-.02Z"/>
      <path class="cls-1" d="M506.09,272.76l.04-1.4c-.06.02-.12-.06-.16-.17l.12,1.56Z"/>
      <path class="cls-1" d="M505.97,271.19l-.11-1.55c0,.71,0,1.33.11,1.55Z"/>
      <path class="cls-1" d="M505.61,266.37l.24,3.27c0-1.13.03-2.53-.24-3.27Z"/>
      <path class="cls-1" d="M505.64,311.18l.35.44c-.07-.24-.19-.39-.35-.44Z"/>
      <path class="cls-1" d="M505.74,322.86c.08-2.78.75-6.99.53-10.87l-.28-.36c.52,1.83-.84,8.59-.25,11.24Z"/>
      <path class="cls-1" d="M501.39,371.59l.28-9.78c-.38,1.71-.88,3.96-.97-.49-1.12,12.33.84-2.55.69,10.27Z"/>
      <path class="cls-1" d="M500.84,401.93c-.17-5.26-.54.06-.76-.22.34,3.33.43,4.14.76.22Z"/>
      <path class="cls-1" d="M500.84,621.16l-.88-.53c.13,4.05.34.04.88.53Z"/>
      <path class="cls-1" d="M502.47,663.35l3.23.29.26-2.58c-.27-1.13-.54-2.17-.81-3.12l.17,5.32-2.85.09Z"/>
      <polygon class="cls-1" points="476.23 657.06 478 656.93 471.24 657.25 476.23 657.06"/>
      <path class="cls-1" d="M108.03,657.37l1.22,1.09c2.74-.2,3.31-1.42-1.22-1.09Z"/>
      <path class="cls-1" d="M8.12,604.48c.54-1.73.89-6.2.36-8.96-.07,3.57-.5,7.14-.36,8.96Z"/>
      <path class="cls-1" d="M39.91,135.44c-.4.98-.84,1.93-1.2,2.92.83-1.79,1.75-3.54,2.62-5.31l-1.42,2.39Z"/>
    </g>
  </g>
</svg>